<svg width="18" height="3" viewBox="0 0 18 3" fill="none" xmlns="http://www.w3.org/2000/svg"><path d="M.886 1.927V.566h.47c.205 0 .426.084.426.344 0 .15-.096.257-.238.296v.004c.175.02.301.14.301.33 0 .262-.226.387-.511.387H.886zm.19-1.202v.415h.248c.147 0 .268-.063.268-.211 0-.146-.118-.204-.298-.204h-.218zm0 .577v.463h.239c.161 0 .338-.05.338-.234 0-.16-.113-.23-.32-.23h-.257zm1.847.625h-.17a2.176 2.176 0 01-.009-.15h-.003a.337.337 0 01-.298.175c-.235 0-.34-.168-.34-.371v-.566h.18v.504c0 .15.04.28.208.28.144 0 .244-.118.244-.3v-.484h.18v.716c0 .048.003.136.008.196zm.923-.787l-.125.106a.249.249 0 00-.211-.113c-.083 0-.17.032-.17.119 0 .077.07.106.208.136.173.039.306.11.306.27 0 .215-.179.294-.363.294a.467.467 0 01-.368-.164l.13-.11a.3.3 0 00.241.128c.09 0 .181-.033.181-.133 0-.085-.083-.115-.238-.152-.121-.029-.266-.08-.266-.252 0-.196.171-.279.345-.279.128 0 .265.052.33.15zm.42-.125v.912h-.18v-.912h.18zm.03-.328a.118.118 0 01-.12.115.118.118 0 01-.12-.115c0-.066.054-.118.12-.118.065 0 .12.05.12.118zm.277.328h.171c.004.047.008.112.008.15h.006c.044-.098.165-.175.296-.175.234 0 .34.168.34.371v.566h-.18V1.42c0-.148-.04-.279-.208-.279-.142 0-.244.12-.244.3v.485H4.58v-.715c0-.049-.002-.137-.008-.197zm1.252.375h.542c-.004-.144-.088-.257-.256-.257a.283.283 0 00-.286.257zm.725.073c0 .02 0 .04-.002.062h-.723a.291.291 0 00.296.277.313.313 0 00.265-.139l.127.102a.47.47 0 01-.392.187.46.46 0 01-.48-.479c0-.285.203-.483.47-.483.27 0 .439.183.439.473zm.87-.323l-.126.106a.249.249 0 00-.211-.113c-.083 0-.17.032-.17.119 0 .077.07.106.208.136.173.039.306.11.306.27 0 .215-.179.294-.363.294a.467.467 0 01-.368-.164l.13-.11a.3.3 0 00.241.128c.09 0 .181-.033.181-.133 0-.085-.083-.115-.238-.152-.121-.029-.266-.08-.266-.252 0-.196.172-.279.345-.279.128 0 .265.052.33.15zm.854 0l-.125.106a.249.249 0 00-.212-.113c-.083 0-.17.032-.17.119 0 .077.07.106.209.136.173.039.305.11.305.27 0 .215-.179.294-.363.294a.467.467 0 01-.367-.164l.128-.11a.3.3 0 00.243.128c.09 0 .18-.033.18-.133 0-.085-.082-.115-.238-.152-.121-.029-.265-.08-.265-.252 0-.196.17-.279.344-.279.129 0 .265.052.33.15zm1.335 0l-.125.106a.249.249 0 00-.212-.113c-.083 0-.17.032-.17.119 0 .077.07.106.209.136.173.039.305.11.305.27 0 .215-.179.294-.363.294a.467.467 0 01-.367-.164l.128-.11a.3.3 0 00.243.128c.09 0 .18-.033.18-.133 0-.085-.082-.115-.238-.152-.121-.029-.265-.08-.265-.252 0-.196.17-.279.344-.279.129 0 .265.052.33.15zm.417.65v.598h-.18V1.015h.177v.143h.005a.38.38 0 01.33-.168c.27 0 .455.21.455.48 0 .266-.179.482-.46.482a.385.385 0 01-.32-.162h-.007zm.6-.32c0-.172-.105-.33-.303-.33-.185 0-.308.156-.308.331 0 .175.123.329.307.329.199 0 .304-.16.304-.33zm.563-.08h.542c-.004-.144-.088-.257-.255-.257a.282.282 0 00-.287.257zm.725.073c0 .02 0 .04-.002.062h-.723a.291.291 0 00.296.277.313.313 0 00.266-.139l.127.102a.47.47 0 01-.393.187.46.46 0 01-.48-.479c0-.285.203-.483.47-.483.27 0 .439.183.439.473zm.245-.448h.17c.005.047.008.112.008.15h.006c.044-.098.166-.175.296-.175.235 0 .34.168.34.371v.566h-.18V1.42c0-.148-.04-.279-.208-.279-.142 0-.244.12-.244.3v.485h-.18v-.715c0-.049-.003-.137-.008-.197zm1.853.768c-.069.11-.2.169-.329.169-.28 0-.46-.216-.46-.483 0-.269.185-.479.458-.479.149 0 .262.073.325.162h.004V.473h.181v1.454h-.175v-.144h-.004zm-.6-.314c0 .171.104.33.302.33.185 0 .308-.153.308-.328 0-.175-.123-.33-.308-.33-.198 0-.302.157-.302.328zm1.276-.454v.912h-.18v-.912h.18zm.031-.328a.118.118 0 01-.12.115.118.118 0 01-.12-.115c0-.066.054-.118.12-.118.065 0 .12.05.12.118zm.277.328h.17c.005.047.008.112.008.15h.006c.045-.098.166-.175.296-.175.235 0 .34.168.34.371v.566h-.18V1.42c0-.148-.04-.279-.208-.279-.142 0-.244.12-.244.3v.485h-.18v-.715a2.4 2.4 0 00-.008-.197zm1.082 1.208l.116-.14a.462.462 0 00.332.148c.24 0 .321-.149.321-.337v-.117h-.004a.382.382 0 01-.32.157c-.28 0-.46-.207-.46-.469 0-.261.179-.475.457-.475.131 0 .26.058.33.172h.003v-.147h.175v.866c0 .265-.125.507-.504.507a.69.69 0 01-.446-.165zm.171-.762c0 .168.112.322.302.322.187 0 .31-.14.31-.322 0-.173-.125-.32-.31-.32-.19 0-.302.146-.302.32z" fill="#fff"/></svg>