<svg width="13" height="4" viewBox="0 0 13 4" fill="none" xmlns="http://www.w3.org/2000/svg"><path d="M1.907.763v.224c.247.007.534.086.739.25-.106.122-.211.241-.32.36a.655.655 0 00-.419-.178v.527c.34.102.748.247.748.719 0 .48-.375.708-.76.721v.241H1.65v-.24c-.283-.01-.596-.11-.814-.304.115-.118.234-.24.346-.362a.749.749 0 00.468.227v-.577c-.379-.102-.718-.247-.718-.689 0-.431.389-.675.735-.692V.763h.24zm-.24 1.127v-.478c-.119.013-.231.09-.231.234 0 .139.092.208.23.244zm.227.54v.521c.148-.006.24-.105.24-.257 0-.151-.101-.22-.24-.263zm2.86-.968L3.86 3.354h-.643l.946-1.86H3.06V1.02h1.694v.442zm1.059 1.364l-.32.936h-.445l.247-.936h.518zm1.644.528h-.554V1.64l-.435.336-.287-.392.768-.564h.508v2.334zm2.556 0H8.325v-.462l.91-.824c.115-.109.191-.217.191-.36 0-.164-.115-.28-.29-.28-.184 0-.306.146-.33.353l-.53-.072c.053-.472.435-.752.89-.752.428 0 .844.228.844.716 0 .332-.195.527-.41.718l-.54.481h.953v.482zM12.21 2.18c0 .663-.25 1.236-.91 1.236-.663 0-.916-.573-.916-1.236 0-.659.253-1.223.916-1.223.66 0 .91.564.91 1.223zm-.567 0c0-.293-.053-.755-.343-.755-.293 0-.35.462-.35.755 0 .3.057.762.35.762.29 0 .343-.462.343-.762z" fill="#fff"/></svg>