<svg width="85" height="22" viewBox="0 0 85 22" fill="none" xmlns="http://www.w3.org/2000/svg"><path d="M10.036 19.149c5.292 0 9.583-4.193 9.583-9.364 0-5.172-4.29-9.364-9.583-9.364S.452 4.613.452 9.785c0 5.171 4.29 9.364 9.584 9.364z" fill="#2CA01C"/><path d="M6.841 6.143c-2.06 0-3.727 1.631-3.727 3.641 0 2.012 1.668 3.642 3.727 3.642h.533v-1.353H6.84c-1.293 0-2.342-1.026-2.342-2.289 0-1.263 1.05-2.289 2.342-2.289h1.28v7.075c0 .747.62 1.353 1.384 1.353v-9.78H6.841zM13.233 13.425c2.059 0 3.726-1.63 3.726-3.641 0-2.012-1.667-3.641-3.726-3.641H12.7v1.352h.533c1.292 0 2.342 1.026 2.342 2.289 0 1.263-1.05 2.289-2.342 2.289h-1.28V4.998c0-.747-.62-1.352-1.385-1.352v9.78h2.665z" fill="#fff"/><path d="M28.719 21.42h-1.482v-3.668h-.026c-.383.579-1.137.94-1.963.94-1.804 0-2.916-1.4-2.916-3.09 0-1.714 1.186-3.042 2.877-3.042 1.086 0 1.755.519 2.051.979h.036v-.81h1.42v8.692h.003zm-3.173-3.934c1.086 0 1.742-.953 1.742-1.858 0-.905-.654-1.883-1.742-1.883-1.148 0-1.704.953-1.704 1.858-.002.905.554 1.883 1.704 1.883zM35.376 18.524H33.97v-.93h-.026c-.26.579-.962 1.1-1.84 1.1-1.544 0-2.187-1.16-2.187-2.342v-3.62h1.482v3.21c0 .689.16 1.544 1.112 1.544.94 0 1.384-.797 1.384-1.569v-3.186h1.482v5.793zM36.863 12.604h1.483v5.794h-1.483v-5.793zM43.891 14.336c-.234-.326-.74-.568-1.222-.568-1.086 0-1.632.953-1.632 1.858 0 .906.556 1.859 1.68 1.859.459 0 .963-.181 1.249-.518l.926.917c-.494.518-1.31.81-2.187.81-1.755 0-3.212-1.134-3.212-3.065 0-1.884 1.434-3.066 3.176-3.066.864 0 1.765.338 2.236.906l-1.014.867zM45.633 9.4h1.482v5.768h.036l2.25-2.44h1.9l-2.568 2.62 2.73 3.174H49.5l-2.347-2.97h-.036v2.97h-1.482V9.399h-.002zM53.624 9.4v4.067h.036c.309-.374.901-.905 1.99-.905 1.692 0 2.877 1.328 2.877 3.043 0 1.69-1.112 3.09-2.916 3.09-.828 0-1.632-.375-2.038-1.039h-.026v.87H52.14V9.399h1.484zm1.693 4.344c-1.086 0-1.742.978-1.742 1.883 0 .906.654 1.859 1.742 1.859 1.148 0 1.704-.978 1.704-1.884 0-.905-.556-1.858-1.704-1.858zM62.393 12.563c1.791 0 3.225 1.22 3.225 3.043 0 1.822-1.434 3.09-3.225 3.09-1.79 0-3.224-1.268-3.224-3.09 0-1.823 1.433-3.043 3.224-3.043zm0 4.924c1.174 0 1.717-.978 1.717-1.883 0-.906-.543-1.859-1.717-1.859-1.173 0-1.716.953-1.716 1.859 0 .905.543 1.883 1.716 1.883zM69.485 12.563c1.791 0 3.224 1.22 3.224 3.043 0 1.822-1.433 3.09-3.224 3.09-1.791 0-3.224-1.268-3.224-3.09 0-1.823 1.433-3.043 3.224-3.043zm0 4.924c1.174 0 1.716-.978 1.716-1.883 0-.906-.542-1.859-1.716-1.859s-1.717.953-1.717 1.859c-.002.905.543 1.883 1.717 1.883zM73.61 9.4h1.483v5.768h.036l2.249-2.44h1.902l-2.569 2.62 2.73 3.174h-1.963l-2.347-2.97h-.036v2.97h-1.483V9.399h-.002zM83.485 14.275a1.698 1.698 0 00-1.297-.628c-.468 0-.952.168-.952.628 0 .447.458.568 1.284.76.878.206 1.915.59 1.915 1.725 0 1.413-1.174 1.93-2.47 1.93-.914 0-1.866-.336-2.435-.952l.976-.893c.321.41.877.724 1.518.724.433 0 .952-.168.952-.689 0-.482-.458-.628-1.358-.832-.878-.206-1.755-.555-1.755-1.642 0-1.292 1.186-1.846 2.36-1.846.851 0 1.741.29 2.223.88l-.96.835zM38.573 4.821c0 1.47 1.203 2.543 2.733 2.543 1.529 0 2.734-1.072 2.734-2.543V1.448h-1.482v3.2c0 .793-.543 1.324-1.257 1.324-.715 0-1.256-.53-1.256-1.323v-3.2h-1.48l.008 3.372zM47.999 2.803h1.768v4.445h1.48V2.803h1.765V1.448H48v1.355zM47.04 1.448h-1.48v5.8h1.48v-5.8zM32.593 2.803h1.767v4.445h1.48V2.803h1.766V1.448h-5.013v1.355zM24.826 1.448h-1.48v5.8h1.48V1.449zM31.814 3.875c0-1.47-1.206-2.543-2.735-2.543s-2.734 1.072-2.734 2.543v3.373h1.48v-3.2c0-.793.543-1.324 1.256-1.324.714 0 1.257.53 1.257 1.324v3.2h1.48l-.004-3.373z" fill="#000"/></svg>