<svg width="292" height="47" viewBox="0 0 292 47" fill="none" xmlns="http://www.w3.org/2000/svg"><path d="M19.098 16.824H9.616c-4.95 0-8.316-2.882-8.316-7.986C1.3 4.108 4.93.83 9.748.83c4.84 0 8.382 3.256 8.382 7.942 0 2.376-1.188 4.202-2.31 5.06v.066l3.278-.066v2.992zm-4.95-7.942c0-2.706-1.804-4.642-4.4-4.642-2.508 0-4.4 1.936-4.4 4.642 0 2.794 1.804 4.73 4.378 4.73 2.552 0 4.422-1.936 4.422-4.73zm16.84 7.942H27.51v-1.518h-.044c-.506.968-1.76 1.826-3.3 1.826-2.948 0-3.982-2.288-3.982-4.488V5.868h3.63v5.94c0 1.232.308 2.332 1.628 2.332 1.254 0 1.936-1.1 1.936-2.354V5.868h3.608v10.956zM37.24 2.37c0 1.122-.924 1.98-2.068 1.98-1.166 0-2.068-.902-2.068-1.98 0-1.056.902-1.98 2.068-1.98 1.144 0 2.068.88 2.068 1.98zm-.264 14.454h-3.608V5.868h3.608v10.956zm12.01-9.834l-2.09 2.42c-.396-.528-1.188-.88-1.914-.88-1.518 0-2.53 1.298-2.53 2.816 0 1.518.99 2.794 2.573 2.794.726 0 1.518-.286 1.958-.814l2.002 2.442c-.901.88-2.441 1.408-4.047 1.408-3.455 0-6.139-2.2-6.139-5.83 0-3.564 2.707-5.83 6.117-5.83 1.561 0 3.212.594 4.07 1.474zm8.314 3.828l4.4 6.006h-4.466l-3.586-5.258h-.066v5.258h-3.63V.192h3.63v10.12h.066l3.498-4.444h4.378l-4.224 4.95zm17.572 1.474c0 3.388-2.97 4.532-5.94 4.532h-6.204V1.248h6.204c2.42 0 5.302.858 5.302 4.004 0 1.716-1.034 2.86-2.552 3.366v.044c1.782.308 3.19 1.584 3.19 3.63zm-4.268-6.534c0-1.056-.814-1.518-2.398-1.518h-1.848v3.212h2.024c1.408 0 2.222-.594 2.222-1.694zm.506 6.182c0-1.298-1.056-1.716-2.662-1.716h-2.09v3.564h2.112c1.188 0 2.64-.33 2.64-1.848zm17.183-.638c0 3.586-2.772 5.874-6.094 5.874-3.3 0-6.072-2.288-6.072-5.874S78.9 5.516 82.2 5.516c3.322 0 6.094 2.2 6.094 5.786zm-3.476 0c0-1.408-.924-2.794-2.618-2.794s-2.574 1.386-2.574 2.794c0 1.408.902 2.838 2.596 2.838s2.596-1.43 2.596-2.838zm16.892 0c0 3.586-2.772 5.874-6.094 5.874-3.3 0-6.072-2.288-6.072-5.874s2.772-5.786 6.072-5.786c3.322 0 6.094 2.2 6.094 5.786zm-3.476 0c0-1.408-.924-2.794-2.618-2.794s-2.574 1.386-2.574 2.794c0 1.408.902 2.838 2.596 2.838s2.596-1.43 2.596-2.838zm12.647-.484l4.4 6.006h-4.466l-3.586-5.258h-.066v5.258h-3.63V.192h3.63v10.12h.066l3.498-4.444h4.378l-4.224 4.95zm13.527-3.762l-1.98 2.046c-.572-.55-1.408-.99-2.288-.99-.682 0-1.364.242-1.364.88 0 .616.594.792 2.002 1.1 1.672.374 3.498 1.21 3.498 3.344 0 2.772-2.442 3.74-4.686 3.74-1.782 0-3.63-.594-4.774-1.694l2.024-2.134c.638.704 1.628 1.232 2.684 1.232.594 0 1.298-.242 1.298-.946 0-.682-.682-.902-2.178-1.254-1.518-.352-3.19-1.122-3.19-3.19 0-2.618 2.464-3.674 4.554-3.674 1.628 0 3.322.528 4.4 1.54zm10.179 9.768h-3.652V.192h3.652v16.632zm5.276-6.732h4.642c0-1.144-.726-2.09-2.156-2.09-1.386 0-2.398.968-2.486 2.09zm7.964 1.386c0 .286 0 .594-.022.858h-7.942c.11 1.21 1.32 2.068 2.618 2.068 1.144 0 1.936-.484 2.42-1.144l2.508 1.584c-1.034 1.496-2.75 2.332-4.972 2.332-3.3 0-6.028-2.09-6.028-5.786 0-3.586 2.596-5.874 5.918-5.874 3.234 0 5.5 2.222 5.5 5.962zm8.244-2.904h-2.574v4.18c0 1.012.33 1.54 1.364 1.54.352 0 .792-.066 1.056-.176l.044 2.64c-.484.176-1.32.33-2.09.33-2.926 0-3.894-1.562-3.894-3.894v-4.62h-1.76V5.868h1.738V2.986h3.542v2.882h2.574v2.706zm9.637-1.518l-1.98 2.046c-.572-.55-1.408-.99-2.288-.99-.682 0-1.364.242-1.364.88 0 .616.594.792 2.002 1.1 1.672.374 3.498 1.21 3.498 3.344 0 2.772-2.442 3.74-4.686 3.74-1.782 0-3.63-.594-4.774-1.694l2.024-2.134c.638.704 1.628 1.232 2.684 1.232.594 0 1.298-.242 1.298-.946 0-.682-.682-.902-2.178-1.254-1.518-.352-3.19-1.122-3.19-3.19 0-2.618 2.464-3.674 4.554-3.674 1.628 0 3.322.528 4.4 1.54zm17.571-1.188l-4.906 12.606c-.88 2.288-2.068 3.63-4.818 3.63-.682 0-1.452-.11-1.98-.242l.396-3.036c.352.11.814.198 1.166.198 1.122 0 1.496-.528 1.848-1.474l.352-.902-4.576-10.78h4.004l2.442 7.04h.066l2.178-7.04h3.828zm12.527 5.434c0 3.586-2.772 5.874-6.094 5.874-3.3 0-6.072-2.288-6.072-5.874s2.772-5.786 6.072-5.786c3.322 0 6.094 2.2 6.094 5.786zm-3.476 0c0-1.408-.924-2.794-2.618-2.794s-2.574 1.386-2.574 2.794c0 1.408.902 2.838 2.596 2.838s2.596-1.43 2.596-2.838zm15.968 5.522h-3.476v-1.518h-.044c-.506.968-1.76 1.826-3.3 1.826-2.948 0-3.982-2.288-3.982-4.488V5.868h3.63v5.94c0 1.232.308 2.332 1.628 2.332 1.254 0 1.936-1.1 1.936-2.354V5.868h3.608v10.956zm16.99-9.834l-2.09 2.42c-.396-.528-1.188-.88-1.914-.88-1.518 0-2.53 1.298-2.53 2.816 0 1.518.99 2.794 2.574 2.794.726 0 1.518-.286 1.958-.814l2.002 2.442c-.902.88-2.442 1.408-4.048 1.408-3.454 0-6.138-2.2-6.138-5.83 0-3.564 2.706-5.83 6.116-5.83 1.562 0 3.212.594 4.07 1.474zm7.412 5.434v-.374h-.462c-1.584 0-3.366.198-3.366 1.496 0 .836.836 1.122 1.562 1.122 1.452 0 2.266-.88 2.266-2.244zm-4.796-3.102l-1.826-1.958c1.276-1.21 3.102-1.848 4.884-1.848 3.674 0 5.038 1.804 5.038 5.786v5.522h-3.3v-1.166h-.066c-.55.902-1.804 1.43-3.102 1.43-1.738 0-3.982-.858-3.982-3.432 0-3.168 3.85-3.696 7.04-3.696v-.176c0-1.078-.858-1.584-1.98-1.584-1.034 0-2.046.506-2.706 1.122zm22.493 1.98c0 3.058-1.914 5.83-5.214 5.83-1.342 0-2.64-.572-3.322-1.518h-.044v6.49h-3.608V5.868h3.432V7.21h.066c.66-.88 1.892-1.65 3.498-1.65 3.19 0 5.192 2.684 5.192 5.742zm-3.498 0c0-1.408-.858-2.794-2.574-2.794-1.628 0-2.64 1.43-2.64 2.816 0 1.43 1.012 2.816 2.64 2.816 1.716 0 2.574-1.408 2.574-2.838zm11.775-2.728H256.1v4.18c0 1.012.33 1.54 1.364 1.54.352 0 .792-.066 1.056-.176l.044 2.64c-.484.176-1.32.33-2.09.33-2.926 0-3.894-1.562-3.894-3.894v-4.62h-1.76V5.868h1.738V2.986h3.542v2.882h2.574v2.706zm11.904 8.25h-3.476v-1.518h-.044c-.506.968-1.76 1.826-3.3 1.826-2.948 0-3.982-2.288-3.982-4.488V5.868h3.63v5.94c0 1.232.308 2.332 1.628 2.332 1.254 0 1.936-1.1 1.936-2.354V5.868h3.608v10.956zm9.597-11.176l-.154 3.168a3.52 3.52 0 00-.924-.11c-1.936 0-2.574 1.584-2.574 2.486v5.632h-3.608V5.868h3.476v1.584h.044c.55-1.1 1.628-1.892 2.97-1.892.286 0 .594.022.77.088zm3.496 4.444h4.642c0-1.144-.726-2.09-2.156-2.09-1.386 0-2.398.968-2.486 2.09zm7.964 1.386c0 .286 0 .594-.022.858h-7.942c.11 1.21 1.32 2.068 2.618 2.068 1.144 0 1.936-.484 2.42-1.144l2.508 1.584c-1.034 1.496-2.75 2.332-4.972 2.332-3.3 0-6.028-2.09-6.028-5.786 0-3.586 2.596-5.874 5.918-5.874 3.234 0 5.5 2.222 5.5 5.962zM13.532 35.302c0 3.586-2.772 5.874-6.094 5.874-3.3 0-6.072-2.288-6.072-5.874s2.772-5.786 6.072-5.786c3.322 0 6.094 2.2 6.094 5.786zm-3.476 0c0-1.408-.924-2.794-2.618-2.794s-2.574 1.386-2.574 2.794c0 1.408.902 2.838 2.596 2.838s2.596-1.43 2.596-2.838zm12.536-5.654l-.154 3.168a3.52 3.52 0 00-.924-.11c-1.936 0-2.574 1.584-2.574 2.486v5.632h-3.608V29.868h3.476v1.584h.044c.55-1.1 1.628-1.892 2.97-1.892.286 0 .594.022.77.088zm8.899 4.444h4.642c0-1.144-.726-2.09-2.156-2.09-1.386 0-2.398.968-2.486 2.09zm7.964 1.386c0 .286 0 .594-.022.858H31.49c.11 1.21 1.32 2.068 2.618 2.068 1.144 0 1.936-.484 2.42-1.144l2.508 1.584c-1.034 1.496-2.75 2.332-4.972 2.332-3.3 0-6.028-2.09-6.028-5.786 0-3.586 2.596-5.874 5.918-5.874 3.234 0 5.5 2.222 5.5 5.962zm19.353 5.346H55.2V34.84c0-1.254-.286-2.31-1.562-2.31-1.232 0-1.826 1.144-1.826 2.376v5.918h-3.608v-6.248c0-1.254-.484-2.046-1.562-2.046-1.144 0-1.804 1.034-1.804 2.354v5.94h-3.63V29.868h3.498v1.518h.044c.506-.924 1.628-1.826 3.278-1.826 1.584 0 2.684.682 3.3 1.87.726-1.144 1.87-1.87 3.498-1.87 2.97 0 3.982 2.42 3.982 4.488v6.776zm8.708-4.4v-.374h-.462c-1.584 0-3.366.198-3.366 1.496 0 .836.837 1.122 1.563 1.122 1.451 0 2.265-.88 2.265-2.244zm-4.796-3.102l-1.825-1.958c1.275-1.21 3.101-1.848 4.883-1.848 3.674 0 5.038 1.804 5.038 5.786v5.522h-3.3v-1.166h-.066c-.55.902-1.803 1.43-3.102 1.43-1.737 0-3.981-.858-3.981-3.432 0-3.168 3.85-3.696 7.04-3.696v-.176c0-1.078-.858-1.584-1.98-1.584-1.035 0-2.047.506-2.707 1.122zm14.222-6.952c0 1.122-.924 1.98-2.068 1.98-1.166 0-2.069-.902-2.069-1.98 0-1.056.902-1.98 2.069-1.98 1.144 0 2.068.88 2.068 1.98zm-.264 14.454H73.07V29.868h3.608v10.956zm6.07 0h-3.653V24.192h3.652v16.632zm18.476-10.956l-4.906 12.606c-.88 2.288-2.068 3.63-4.818 3.63-.682 0-1.452-.11-1.98-.242l.396-3.036c.352.11.814.198 1.166.198 1.122 0 1.496-.528 1.848-1.474l.352-.902-4.576-10.78h4.004l2.442 7.04h.066l2.178-7.04h3.828zm12.526 5.434c0 3.586-2.772 5.874-6.094 5.874-3.3 0-6.072-2.288-6.072-5.874s2.772-5.786 6.072-5.786c3.322 0 6.094 2.2 6.094 5.786zm-3.476 0c0-1.408-.924-2.794-2.618-2.794s-2.574 1.386-2.574 2.794c0 1.408.902 2.838 2.596 2.838s2.596-1.43 2.596-2.838zm15.969 5.522h-3.476v-1.518h-.044c-.506.968-1.76 1.826-3.3 1.826-2.948 0-3.982-2.288-3.982-4.488v-6.776h3.63v5.94c0 1.232.308 2.332 1.628 2.332 1.254 0 1.936-1.1 1.936-2.354v-5.918h3.608v10.956zm9.597-11.176l-.154 3.168a3.52 3.52 0 00-.924-.11c-1.936 0-2.574 1.584-2.574 2.486v5.632h-3.608V29.868h3.476v1.584h.044c.55-1.1 1.628-1.892 2.97-1.892.286 0 .594.022.77.088zm13.255 0l-.154 3.168a3.52 3.52 0 00-.924-.11c-1.936 0-2.574 1.584-2.574 2.486v5.632h-3.608V29.868h3.476v1.584h.044c.55-1.1 1.628-1.892 2.97-1.892.286 0 .594.022.77.088zm3.496 4.444h4.642c0-1.144-.726-2.09-2.156-2.09-1.386 0-2.398.968-2.486 2.09zm7.964 1.386c0 .286 0 .594-.022.858h-7.942c.11 1.21 1.32 2.068 2.618 2.068 1.144 0 1.936-.484 2.42-1.144l2.508 1.584c-1.034 1.496-2.75 2.332-4.972 2.332-3.3 0-6.028-2.09-6.028-5.786 0-3.586 2.596-5.874 5.918-5.874 3.234 0 5.5 2.222 5.5 5.962zm11.39-4.488l-2.09 2.42c-.396-.528-1.188-.88-1.914-.88-1.518 0-2.53 1.298-2.53 2.816 0 1.518.99 2.794 2.574 2.794.726 0 1.518-.286 1.958-.814l2.002 2.442c-.902.88-2.442 1.408-4.048 1.408-3.454 0-6.138-2.2-6.138-5.83 0-3.564 2.706-5.83 6.116-5.83 1.562 0 3.212.594 4.07 1.474zm3.848 3.102h4.642c0-1.144-.726-2.09-2.156-2.09-1.386 0-2.398.968-2.486 2.09zm7.964 1.386c0 .286 0 .594-.022.858h-7.942c.11 1.21 1.32 2.068 2.618 2.068 1.144 0 1.936-.484 2.42-1.144l2.508 1.584c-1.034 1.496-2.75 2.332-4.972 2.332-3.3 0-6.028-2.09-6.028-5.786 0-3.586 2.596-5.874 5.918-5.874 3.234 0 5.5 2.222 5.5 5.962zm5.669-9.108c0 1.122-.924 1.98-2.068 1.98-1.166 0-2.068-.902-2.068-1.98 0-1.056.902-1.98 2.068-1.98 1.144 0 2.068.88 2.068 1.98zm-.264 14.454h-3.608V29.868h3.608v10.956zm14.562-5.522c0 3.058-1.914 5.83-5.214 5.83-1.342 0-2.64-.572-3.322-1.518h-.044v6.49h-3.608V29.868h3.432v1.342h.066c.66-.88 1.892-1.65 3.498-1.65 3.19 0 5.192 2.684 5.192 5.742zm-3.498 0c0-1.408-.858-2.794-2.574-2.794-1.628 0-2.64 1.43-2.64 2.816 0 1.43 1.012 2.816 2.64 2.816 1.716 0 2.574-1.408 2.574-2.838zm11.775-2.728h-2.574v4.18c0 1.012.33 1.54 1.364 1.54.352 0 .792-.066 1.056-.176l.044 2.64c-.484.176-1.32.33-2.09.33-2.926 0-3.894-1.562-3.894-3.894v-4.62h-1.76v-2.706h1.738v-2.882h3.542v2.882h2.574v2.706zm9.638-1.518l-1.98 2.046c-.572-.55-1.408-.99-2.288-.99-.682 0-1.364.242-1.364.88 0 .616.594.792 2.002 1.1 1.672.374 3.498 1.21 3.498 3.344 0 2.772-2.442 3.74-4.686 3.74-1.782 0-3.63-.594-4.774-1.694l2.024-2.134c.638.704 1.628 1.232 2.684 1.232.594 0 1.298-.242 1.298-.946 0-.682-.682-.902-2.178-1.254-1.518-.352-3.19-1.122-3.19-3.19 0-2.618 2.464-3.674 4.554-3.674 1.628 0 3.322.528 4.4 1.54z" fill="#14324F"/></svg>