<svg width="98" height="72" viewBox="0 0 98 72" fill="none" xmlns="http://www.w3.org/2000/svg"><path d="M9.329 61.888l-.138 1.63a1.903 1.903 0 00-.565-.087c-.752 0-.916.602-.916 1.179v.627h1.393v1.543H7.71v4.703H5.653V66.78H4.512v-1.543h1.141v-.602c0-1.53.602-2.872 2.685-2.872.35 0 .715.037.99.125zm6.901 6.447c0 2.045-1.58 3.35-3.474 3.35-1.882 0-3.462-1.305-3.462-3.35 0-2.044 1.58-3.299 3.462-3.299 1.894 0 3.474 1.255 3.474 3.3zm-1.981 0c0-.803-.527-1.593-1.493-1.593-.966 0-1.467.79-1.467 1.593 0 .803.514 1.618 1.48 1.618.965 0 1.48-.815 1.48-1.618zm7.147-3.223l-.088 1.806a2.006 2.006 0 00-.527-.063c-1.103 0-1.467.903-1.467 1.417v3.211h-2.057v-6.246h1.982v.903h.025c.313-.627.928-1.079 1.693-1.079.163 0 .339.013.439.05zm10.153 3.386c0 2.02-1.58 3.224-3.5 3.224-1.93 0-3.499-1.23-3.499-3.174 0-1.053.402-1.869.991-2.747l2.145-3.198h2.546l-2.182 3.035-.038.063c.163-.063.427-.1.627-.1 1.556 0 2.91 1.166 2.91 2.897zm-2.107.05c0-.802-.552-1.392-1.38-1.392-.827 0-1.404.577-1.404 1.405 0 .765.551 1.405 1.392 1.405.828 0 1.392-.577 1.392-1.418zm16.099 2.935h-2.057v-3.411c0-.715-.163-1.317-.89-1.317-.703 0-1.042.652-1.042 1.354v3.374h-2.057v-3.562c0-.715-.276-1.166-.89-1.166-.653 0-1.029.59-1.029 1.342v3.386h-2.07v-6.246h1.995v.866h.025c.288-.527.928-1.042 1.869-1.042.903 0 1.53.39 1.881 1.066.414-.652 1.066-1.066 1.995-1.066 1.693 0 2.27 1.38 2.27 2.56v3.862zm7.9-3.148c0 2.045-1.58 3.35-3.475 3.35-1.881 0-3.462-1.305-3.462-3.35 0-2.044 1.581-3.299 3.462-3.299 1.894 0 3.475 1.255 3.475 3.3zm-1.982 0c0-.803-.527-1.593-1.493-1.593-.965 0-1.467.79-1.467 1.593 0 .803.514 1.618 1.48 1.618s1.48-.815 1.48-1.618zm9.18 3.148h-2.07v-3.411c0-.69-.188-1.317-.928-1.317-.728 0-1.104.627-1.104 1.342v3.386h-2.07v-6.246h1.995v.866h.025c.288-.552 1.003-1.042 1.869-1.042 1.68 0 2.282 1.305 2.282 2.56v3.862zm4.982-4.703h-1.468v2.383c0 .577.188.878.778.878.2 0 .451-.038.602-.1l.025 1.505c-.276.1-.753.188-1.192.188-1.668 0-2.22-.89-2.22-2.22V66.78h-1.003v-1.543h.99v-1.643h2.02v1.643h1.468v1.543zm6.874 4.703h-2.07v-3.386c0-.703-.175-1.317-.915-1.317-.715 0-1.117.59-1.117 1.33v3.373h-2.056v-9.482h2.056v4.026h.026c.276-.502.928-.966 1.793-.966 1.694 0 2.283 1.305 2.283 2.56v3.862zm6.086-5.569l-1.13 1.167c-.325-.314-.802-.565-1.304-.565-.388 0-.777.138-.777.502 0 .351.338.452 1.141.627.954.214 1.995.69 1.995 1.907 0 1.58-1.393 2.132-2.672 2.132-1.016 0-2.07-.339-2.722-.966l1.154-1.216c.364.401.928.702 1.53.702.339 0 .74-.138.74-.54 0-.388-.389-.514-1.242-.714-.865-.201-1.818-.64-1.818-1.819 0-1.493 1.405-2.095 2.596-2.095.928 0 1.894.301 2.509.878zM89.209 35.275c0 1.672-1.293 2.74-2.843 2.74-1.54 0-2.832-1.068-2.832-2.74 0-1.673 1.293-2.7 2.832-2.7 1.55 0 2.843 1.027 2.843 2.7zm-1.622 0c0-.657-.43-1.304-1.22-1.304-.791 0-1.202.647-1.202 1.304s.421 1.324 1.211 1.324 1.211-.667 1.211-1.324zM93.558 30l-.113 1.334a1.559 1.559 0 00-.461-.072c-.616 0-.75.493-.75.965v.513h1.14v1.262h-1.14v3.849h-1.682v-3.849h-.934V32.74h.934v-.493c0-1.252.492-2.35 2.196-2.35.287 0 .585.031.81.103zm3.736 0l-.113 1.334a1.56 1.56 0 00-.462-.072c-.616 0-.75.493-.75.965v.513h1.14v1.262h-1.14v3.849h-1.682v-3.849h-.934V32.74h.934v-.493c0-1.252.492-2.35 2.196-2.35.287 0 .585.031.81.103zM95.537 23.175a2.803 2.803 0 01-2.816 2.802 2.803 2.803 0 01-2.817-2.802 2.803 2.803 0 012.817-2.802 2.803 2.803 0 012.816 2.802zm-1.66 0c0-.637-.534-1.156-1.156-1.156-.638 0-1.156.519-1.156 1.156 0 .637.518 1.142 1.156 1.142.622 0 1.156-.505 1.156-1.142zm-5.455-5.248a2.812 2.812 0 01-2.816 2.802 2.812 2.812 0 01-2.817-2.802 2.793 2.793 0 012.817-2.801 2.793 2.793 0 012.816 2.801zm-1.66 0c0-.637-.519-1.156-1.156-1.156-.638 0-1.157.52-1.157 1.156 0 .638.52 1.142 1.157 1.142s1.156-.504 1.156-1.142zm6.166-2.43l-6.181 10.806-1.32-.652 6.123-10.822 1.378.667zM17.253 42.737H16.6c-7.234 0-14.35-5.04-14.35-13.993 0-10.555 8.598-16.01 18.382-16.01 9.783 0 18.38 5.1 18.38 15.891 0 5.277-2.43 9.962-5.217 13.816L24.19 55.9H7.054l9.902-12.808.297-.356zm3.38-9.961c2.55 0 4.328-1.838 4.328-4.21 0-2.431-1.779-4.329-4.328-4.329-2.668 0-4.447 1.898-4.447 4.329 0 2.372 1.779 4.21 4.447 4.21zm39.738 24.31c-15.416 0-18.855-13.044-18.855-22.413 0-9.368 3.439-21.939 18.855-21.939 15.476 0 18.856 12.57 18.856 21.94 0 9.368-3.38 22.412-18.856 22.412zm0-32.196c-3.498 0-4.269 5.336-4.269 9.783 0 4.625.771 10.14 4.27 10.14 3.557 0 4.269-5.515 4.269-10.14 0-4.447-.712-9.783-4.27-9.783zM11.896 6.364v.872H8.244C6.311 7.236 5.02 6.1 5.02 4.132c0-1.839 1.385-3.104 3.241-3.104s3.216 1.265 3.216 3.104c0 1.086-.539 1.83-1.078 2.215v.017h1.497zM8.26 1.994c-1.171 0-2.06.906-2.06 2.138 0 1.291.829 2.164 2.043 2.164 1.197 0 2.061-.873 2.061-2.164 0-1.232-.82-2.138-2.044-2.138zM16.16 3.13v4.105h-.975v-.658h-.018c-.179.41-.666.778-1.274.778-1.069 0-1.513-.82-1.513-1.659V3.131h1.026v2.275c0 .488.111 1.095.77 1.095.65 0 .957-.565.957-1.112V3.131h1.027zm1.06 4.105V3.131h1.027v4.105H17.22zm-.145-5.499c0-.325.274-.615.65-.615s.667.265.667.615c0 .351-.29.616-.667.616a.632.632 0 01-.65-.616zm5.735 1.916l-.701.616c-.163-.231-.514-.402-.847-.402-.753 0-1.13.675-1.13 1.317 0 .641.386 1.317 1.164 1.317.316 0 .667-.128.864-.368l.641.65c-.342.368-.906.573-1.513.573-1.215 0-2.224-.804-2.224-2.172 0-1.334.992-2.172 2.198-2.172.598 0 1.223.24 1.548.641zm.498 3.583V.771h1.026v4.088h.026l1.556-1.728h1.317l-1.778 1.856 1.89 2.25h-1.36L24.36 5.132h-.026v2.103h-1.026zm4.49 0V1.181h2.36c.915 0 1.856.42 1.856 1.523 0 .684-.428 1.137-1.052 1.325v.017c.761.103 1.308.616 1.308 1.429 0 1.317-1.146 1.761-2.292 1.761h-2.18zm1.077-5.165v1.573h.958c.719 0 1.103-.299 1.103-.82 0-.54-.384-.753-1.197-.753h-.864zm0 2.497V6.33h.967c.556 0 1.35-.111 1.35-.907 0-.633-.435-.855-1.308-.855h-1.009zm3.98.599c0-1.292.993-2.155 2.233-2.155 1.24 0 2.232.863 2.232 2.155 0 1.291-.992 2.19-2.232 2.19-1.24 0-2.232-.899-2.232-2.19zm1.044 0c0 .641.377 1.334 1.189 1.334s1.189-.693 1.189-1.334c0-.642-.377-1.317-1.189-1.317-.813 0-1.189.675-1.189 1.317zm3.989 0c0-1.292.992-2.155 2.232-2.155 1.24 0 2.232.863 2.232 2.155 0 1.291-.992 2.19-2.232 2.19-1.24 0-2.232-.899-2.232-2.19zm1.043 0c0 .641.376 1.334 1.189 1.334.812 0 1.188-.693 1.188-1.334 0-.642-.376-1.317-1.188-1.317-.813 0-1.19.675-1.19 1.317zm4.245 2.07V.77h1.026v4.088h.026l1.556-1.728h1.317l-1.779 1.856 1.89 2.25h-1.36l-1.624-2.104h-.026v2.103h-1.026zm7.304-3.601l-.667.59a1.163 1.163 0 00-.898-.445c-.325 0-.658.12-.658.445 0 .316.316.402.889.539.607.145 1.325.419 1.325 1.223 0 1-.812 1.368-1.71 1.368-.633 0-1.291-.24-1.685-.676l.676-.632c.222.29.607.513 1.052.513.3 0 .658-.12.658-.488 0-.342-.316-.444-.94-.59-.608-.145-1.215-.393-1.215-1.163 0-.915.821-1.308 1.634-1.308.59 0 1.206.205 1.539.624zm2.406.556c0-1.942 1.377-3.164 3.241-3.164 1.89 0 3.267 1.222 3.267 3.164 0 1.89-1.377 3.198-3.267 3.198-1.864 0-3.241-1.308-3.241-3.198zm1.172 0c0 1.291.846 2.232 2.078 2.232 1.24 0 2.086-.94 2.086-2.232 0-1.249-.83-2.215-2.086-2.215-1.249 0-2.078.966-2.078 2.215zm6.137 3.044V3.131h.975v.659h.017c.18-.41.667-.778 1.274-.778 1.07 0 1.514.82 1.514 1.659v2.565h-1.026V4.961c0-.487-.112-1.094-.77-1.094-.65 0-.958.564-.958 1.112v2.257h-1.026zm4.806 0V.771h1.027v6.465H65zm2.1 0V3.131h1.027v4.105h-1.026zm-.145-5.499c0-.325.274-.615.65-.615s.667.265.667.615c0 .351-.29.616-.667.616a.632.632 0 01-.65-.616zm2.229 5.5V3.13h.975v.659h.017c.18-.41.667-.778 1.274-.778 1.069 0 1.514.82 1.514 1.659v2.565h-1.027V4.961c0-.487-.11-1.094-.77-1.094-.65 0-.957.564-.957 1.112v2.257h-1.026zm5.576-2.464h2.104c0-.53-.3-.992-.967-.992-.607 0-1.094.42-1.137.992zm3.13.462c0 .094 0 .18-.009.274h-3.121c.043.581.573 1.009 1.172 1.009.513 0 .855-.205 1.086-.53l.684.547c-.402.547-.984.821-1.762.821-1.266 0-2.206-.812-2.206-2.146 0-1.326.932-2.198 2.172-2.198 1.146 0 1.984.744 1.984 2.223z" fill="#14324F"/></svg>