<svg width="85" height="22" viewBox="0 0 85 22" fill="none" xmlns="http://www.w3.org/2000/svg"><rect x=".48" y=".406" width="84" height="21" rx="2.336" fill="#3BD85E"/><path d="M27.151 13.906V8.242h2.208c.856 0 1.736.392 1.736 1.424 0 .64-.4 1.064-.984 1.24v.016c.712.096 1.224.576 1.224 1.336 0 1.232-1.072 1.648-2.144 1.648h-2.04zm1.008-4.832v1.472h.896c.672 0 1.032-.28 1.032-.768 0-.504-.36-.704-1.12-.704h-.808zm0 2.336v1.648h.904c.52 0 1.264-.104 1.264-.848 0-.592-.408-.8-1.224-.8h-.944zm7.628-1.344v3.84h-.912v-.616h-.016c-.168.384-.624.728-1.192.728-1 0-1.416-.768-1.416-1.552v-2.4h.96v2.128c0 .456.104 1.024.72 1.024.608 0 .896-.528.896-1.04v-2.112h.96zm2.224 3.84l-1.648-3.84h1.064l1.072 2.792h.016l.952-2.792h1l-1.816 4.664c-.272.696-.608 1.096-1.456 1.096-.16 0-.328-.016-.496-.056l.08-.832c.128.04.256.056.36.056.408 0 .52-.2.68-.6l.192-.488zm5.03 0v-3.84h.912v.616h.016c.168-.384.624-.728 1.192-.728 1 0 1.416.768 1.416 1.552v2.4h-.96v-2.128c0-.456-.104-1.024-.72-1.024-.608 0-.896.528-.896 1.04v2.112h-.96zm4.432-1.936c0-1.208.928-2.016 2.088-2.016 1.16 0 2.088.808 2.088 2.016s-.928 2.048-2.088 2.048c-1.16 0-2.088-.84-2.088-2.048zm.976 0c0 .6.352 1.248 1.112 1.248.76 0 1.112-.648 1.112-1.248s-.352-1.232-1.112-1.232c-.76 0-1.112.632-1.112 1.232zm4.923 1.936l-1.336-3.84h1.04l.8 2.752h.016l.824-2.752h1.024l.832 2.752h.016l.816-2.752h1l-1.328 3.84H56.1l-.872-2.688h-.016l-.864 2.688h-.976z" fill="#14324F"/></svg>