<svg width="7" height="2" viewBox="0 0 7 2" fill="none" xmlns="http://www.w3.org/2000/svg"><path d="M2.308 1.14a.811.811 0 01-.831.838.811.811 0 01-.831-.838c0-.484.356-.838.83-.838.476 0 .832.354.832.838zm-.171 0c0-.371-.25-.696-.66-.696-.41 0-.66.325-.66.696 0 .372.25.694.66.694.41 0 .66-.322.66-.694zM3.11.883v.129h-.297v.615c0 .157.065.193.157.193a.314.314 0 00.133-.033l.007.132a.495.495 0 01-.18.032c-.113 0-.27-.05-.27-.282v-.657h-.219V.883h.219V.586h.153v.297h.297zm.397.174h.005c.056-.122.205-.2.353-.2.268 0 .401.173.401.434v.647h-.153v-.584c0-.22-.065-.37-.286-.37-.162 0-.32.131-.32.413v.54h-.153V.236h.153v.822zm1.241.272h.719c-.01-.198-.13-.344-.35-.344a.373.373 0 00-.369.344zm.874.05c0 .02 0 .045-.002.072h-.874a.384.384 0 00.385.383.4.4 0 00.338-.183l.115.09a.55.55 0 01-.453.224.535.535 0 01-.545-.555c0-.317.232-.554.532-.554.33 0 .504.235.504.523zm.33-.264c0-.056-.003-.16-.01-.232h.147c.005.057.009.136.009.18h.005A.375.375 0 016.44.857c.039 0 .07.003.102.012l-.02.144a.41.41 0 00-.109-.014c-.162 0-.308.117-.308.399v.54h-.153v-.822z" fill="#fff"/></svg>