<svg width="257" height="65" viewBox="0 0 257 65" fill="none" xmlns="http://www.w3.org/2000/svg"><path d="M3.863 37.242v-.173H3.65c-.731 0-1.553.092-1.553.69 0 .387.385.519.72.519.67 0 1.046-.407 1.046-1.036zM1.65 35.811l-.843-.904c.589-.558 1.432-.853 2.254-.853 1.695 0 2.325.833 2.325 2.67v2.549H3.863v-.539h-.03c-.254.417-.833.66-1.432.66-.802 0-1.837-.396-1.837-1.584 0-1.461 1.776-1.705 3.248-1.705v-.081c0-.498-.396-.731-.913-.731-.478 0-.945.233-1.25.517zm9.75 3.462H9.725V36.51c0-.558-.152-1.066-.751-1.066-.59 0-.894.508-.894 1.086v2.742H6.405v-5.056H8.02v.7h.02c.234-.447.813-.843 1.513-.843 1.36 0 1.848 1.056 1.848 2.072v3.127zm6.398 0h-1.533v-.66h-.02c-.325.507-.985.802-1.655.802-1.523 0-2.406-1.28-2.406-2.69 0-1.412.914-2.65 2.386-2.65.74 0 1.259.345 1.543.68h.02v-3.158h1.665v7.675zm-1.594-2.539c0-.64-.467-1.3-1.218-1.3-.792 0-1.198.64-1.198 1.29 0 .66.406 1.31 1.198 1.31.751 0 1.218-.64 1.218-1.3zm8.896-1.97l-.914.945c-.264-.254-.65-.457-1.056-.457-.315 0-.63.112-.63.406 0 .285.275.366.924.508.772.173 1.615.558 1.615 1.543 0 1.28-1.127 1.726-2.163 1.726-.822 0-1.675-.274-2.203-.782l.934-.985c.295.325.752.569 1.239.569.274 0 .599-.112.599-.437 0-.314-.315-.416-1.005-.578-.7-.163-1.472-.518-1.472-1.472 0-1.209 1.137-1.696 2.101-1.696.752 0 1.533.244 2.03.71zm3.661 2.478v-.173h-.213c-.73 0-1.553.092-1.553.69 0 .387.386.519.72.519.67 0 1.046-.407 1.046-1.036zm-2.213-1.431l-.842-.904c.588-.558 1.431-.853 2.253-.853 1.696 0 2.325.833 2.325 2.67v2.549h-1.523v-.539h-.03c-.254.417-.833.66-1.432.66-.802 0-1.837-.396-1.837-1.584 0-1.461 1.776-1.705 3.249-1.705v-.081c0-.498-.396-.731-.914-.731-.477 0-.944.233-1.249.517zm9.872-1.594l-1.99 5.056h-1.797l-1.99-5.056h1.838l1.066 3.279h.03l1.067-3.28h1.776zm1.76 1.949h2.143c0-.528-.335-.965-.995-.965-.64 0-1.107.447-1.148.965zm3.676.64c0 .131 0 .274-.01.395H38.18c.05.559.609.955 1.208.955.527 0 .893-.224 1.116-.528l1.158.73c-.477.691-1.27 1.077-2.295 1.077-1.523 0-2.781-.965-2.781-2.67 0-1.655 1.198-2.71 2.73-2.71 1.493 0 2.539 1.025 2.539 2.75zm4.697-2.041l-.914.944c-.264-.254-.65-.457-1.056-.457-.314 0-.629.112-.629.406 0 .285.274.366.924.508.772.173 1.614.558 1.614 1.543 0 1.28-1.127 1.726-2.162 1.726-.823 0-1.675-.274-2.203-.782l.934-.985c.294.325.751.569 1.238.569.274 0 .6-.112.6-.437 0-.314-.316-.416-1.006-.578-.7-.163-1.472-.518-1.472-1.472 0-1.209 1.137-1.696 2.102-1.696.75 0 1.533.244 2.03.71zm8.108-.548l-2.264 5.817c-.406 1.056-.954 1.675-2.223 1.675-.315 0-.67-.05-.913-.112l.182-1.4c.163.05.376.09.538.09.518 0 .69-.243.853-.68l.162-.416-2.111-4.974h1.848l1.126 3.248h.03l1.006-3.248h1.766zm5.781 2.507c0 1.655-1.28 2.71-2.812 2.71-1.523 0-2.802-1.055-2.802-2.71s1.279-2.67 2.802-2.67c1.533 0 2.812 1.015 2.812 2.67zm-1.604 0c0-.65-.427-1.29-1.208-1.29-.782 0-1.188.64-1.188 1.29s.416 1.31 1.198 1.31 1.198-.66 1.198-1.31zm7.369 2.549h-1.604v-.701h-.02c-.234.447-.813.843-1.523.843-1.36 0-1.838-1.056-1.838-2.072v-3.126h1.675v2.74c0 .57.142 1.077.751 1.077.58 0 .894-.508.894-1.086v-2.731h1.665v5.056zM162.441 36.724c0 1.655-1.279 2.71-2.812 2.71-1.523 0-2.802-1.055-2.802-2.71s1.279-2.67 2.802-2.67c1.533 0 2.812 1.015 2.812 2.67zm-1.604 0c0-.65-.426-1.29-1.208-1.29s-1.188.64-1.188 1.29.417 1.31 1.198 1.31c.782 0 1.198-.66 1.198-1.31zm5.684-5.218l-.112 1.32a1.54 1.54 0 00-.457-.071c-.609 0-.741.487-.741.954v.508h1.127v1.248h-1.127v3.807h-1.665v-3.807h-.924v-1.248h.924v-.488c0-1.238.488-2.325 2.173-2.325.284 0 .578.03.802.102zm5.773 5.736v-.173h-.213c-.731 0-1.553.092-1.553.69 0 .387.385.519.72.519.67 0 1.046-.407 1.046-1.036zm-2.213-1.431l-.843-.904c.589-.558 1.432-.853 2.254-.853 1.696 0 2.325.833 2.325 2.67v2.549h-1.523v-.539h-.03c-.254.417-.833.66-1.432.66-.802 0-1.837-.396-1.837-1.584 0-1.461 1.776-1.705 3.248-1.705v-.081c0-.498-.396-.731-.913-.731-.478 0-.945.233-1.249.517zm10.116 3.462h-1.533v-.66h-.021c-.324.507-.984.802-1.654.802-1.523 0-2.407-1.28-2.407-2.69 0-1.412.914-2.65 2.386-2.65.741 0 1.259.345 1.543.68h.021v-3.158h1.665v7.675zm-1.594-2.539c0-.64-.467-1.3-1.218-1.3-.792 0-1.198.64-1.198 1.29 0 .66.406 1.31 1.198 1.31.751 0 1.218-.64 1.218-1.3zm10.814 2.538h-1.665v-2.76c0-.58-.132-1.067-.721-1.067-.568 0-.842.528-.842 1.096v2.732h-1.665v-2.884c0-.579-.224-.944-.721-.944-.528 0-.833.477-.833 1.086v2.742h-1.675v-5.056h1.614v.7h.021c.233-.426.751-.843 1.512-.843.731 0 1.239.315 1.523.864.335-.529.863-.864 1.614-.864 1.371 0 1.838 1.117 1.838 2.072v3.127zm2.841-6.67c0 .518-.427.914-.954.914-.539 0-.955-.416-.955-.914 0-.487.416-.913.955-.913.527 0 .954.406.954.913zm-.122 6.67h-1.665v-5.055h1.665v5.056zm6.09 0h-1.675v-2.76c0-.56-.152-1.067-.751-1.067-.589 0-.893.508-.893 1.086v2.742h-1.676v-5.056h1.615v.7h.02c.233-.447.812-.843 1.513-.843 1.36 0 1.847 1.056 1.847 2.072v3.127zm4.693-3.106h2.142c0-.528-.335-.965-.995-.965-.64 0-1.107.447-1.147.965zm3.675.64c0 .131 0 .274-.01.395h-3.665c.051.559.609.955 1.208.955.528 0 .893-.224 1.117-.528l1.157.73c-.477.691-1.269 1.077-2.294 1.077-1.523 0-2.782-.965-2.782-2.67 0-1.655 1.198-2.71 2.731-2.71 1.492 0 2.538 1.025 2.538 2.75zm5.926-2.59l-1.99 5.056h-1.797l-1.99-5.055h1.838l1.066 3.279h.03l1.066-3.28h1.777zm1.76 1.95h2.142c0-.528-.335-.965-.995-.965-.639 0-1.106.447-1.147.965zm3.675.64c0 .131 0 .274-.01.395h-3.665c.051.559.609.955 1.208.955.528 0 .894-.224 1.117-.528l1.157.73c-.477.691-1.269 1.077-2.294 1.077-1.523 0-2.782-.965-2.782-2.67 0-1.655 1.198-2.71 2.731-2.71 1.492 0 2.538 1.025 2.538 2.75zm4.16-2.69l-.072 1.461a1.62 1.62 0 00-.426-.05c-.893 0-1.188.73-1.188 1.146v2.6h-1.665v-5.056h1.604v.73h.021c.253-.507.751-.873 1.37-.873.132 0 .274.01.356.041zm5.568.1l-2.264 5.818c-.406 1.056-.954 1.675-2.223 1.675-.315 0-.67-.05-.914-.112l.183-1.4c.162.05.375.09.538.09.517 0 .69-.243.852-.68l.163-.416-2.112-4.974h1.848l1.127 3.248h.03l1.005-3.248h1.767zm10.928 0l-1.757 5.056h-1.675l-.995-3.147h-.02l-.975 3.148h-1.675l-1.746-5.056h1.797l.873 3.198h.03l.904-3.198h1.675l.934 3.198h.02l.884-3.198h1.726zm1.767 1.95h2.142c0-.528-.335-.965-.995-.965-.639 0-1.106.447-1.147.965zm3.675.64c0 .131 0 .274-.01.395h-3.665c.051.559.609.955 1.208.955.528 0 .894-.224 1.117-.528l1.157.73c-.477.691-1.269 1.077-2.294 1.077-1.523 0-2.782-.965-2.782-2.67 0-1.655 1.198-2.71 2.731-2.71 1.492 0 2.538 1.025 2.538 2.75zm2.149-.64h2.142c0-.528-.335-.965-.994-.965-.64 0-1.107.447-1.148.965zm3.675.64c0 .131 0 .274-.01.395h-3.665c.051.559.609.955 1.208.955.528 0 .894-.224 1.117-.528l1.158.73c-.478.691-1.269 1.077-2.295 1.077-1.523 0-2.782-.965-2.782-2.67 0-1.655 1.198-2.71 2.731-2.71 1.493 0 2.538 1.025 2.538 2.75zm4.211-.305l2.03 2.772h-2.061l-1.655-2.427h-.03v2.427h-1.675v-7.676h1.675v4.67h.03l1.615-2.05h2.02l-1.949 2.284zM101.936 63.273H87.012V17.08l-11.725 9.06-7.729-10.57L88.256.38h13.68v62.893zm41.261 0h-14.924V17.08l-11.725 9.06-7.729-10.57L129.517.38h13.68v62.893zM165.143 11.975h-2.606V7.71c0-.885-.221-1.659-1.153-1.659-.9 0-1.405.743-1.405 1.674v4.249h-2.59V.035h2.59v5.07h.032c.347-.632 1.168-1.216 2.258-1.216 2.132 0 2.874 1.642 2.874 3.222v4.864zm6.825-8.023l-.11 2.274a2.53 2.53 0 00-.664-.079c-1.389 0-1.847 1.137-1.847 1.785v4.043h-2.59V4.11h2.495v1.137h.032c.394-.79 1.168-1.358 2.132-1.358.205 0 .426.016.552.063zm6.751 1.01l-1.421 1.47c-.411-.395-1.011-.711-1.642-.711-.49 0-.98.174-.98.632 0 .442.427.568 1.438.79 1.2.268 2.511.868 2.511 2.4 0 1.99-1.753 2.684-3.364 2.684-1.279 0-2.606-.426-3.427-1.216l1.453-1.532c.458.506 1.168.885 1.926.885.427 0 .932-.174.932-.68 0-.489-.489-.647-1.563-.9-1.09-.252-2.29-.805-2.29-2.29 0-1.879 1.769-2.637 3.269-2.637 1.168 0 2.384.38 3.158 1.106z" fill="#fff"/></svg>