<svg width="56" height="65" viewBox="0 0 56 65" fill="none" xmlns="http://www.w3.org/2000/svg"><rect x=".766" y=".683" width="54.717" height="63.717" rx="4.009" fill="#000" fill-opacity=".45" stroke="#fff" stroke-width=".283"/><g clip-path="url(#clip0_2171_184954)"><path d="M12.827 13.98c2.25 0 4.075-1.81 4.075-4.041 0-2.232-1.824-4.04-4.075-4.04-2.25 0-4.074 1.808-4.074 4.04s1.824 4.04 4.074 4.04z" fill="#2CA01C"/><path d="M11.47 8.368c-.876 0-1.585.704-1.585 1.572 0 .868.709 1.57 1.584 1.57h.227v-.583h-.227a.992.992 0 01-.996-.987c0-.546.447-.988.996-.988h.545v3.053c0 .322.263.583.588.583v-4.22h-1.133zM14.187 11.512c.876 0 1.585-.704 1.585-1.571 0-.868-.709-1.572-1.585-1.572h-.226v.584h.226c.55 0 .996.443.996.988a.992.992 0 01-.996.987h-.544V7.877a.586.586 0 00-.588-.584v4.22h1.132zM20.771 14.961h-.63v-1.583h-.011c-.163.25-.483.406-.835.406-.767 0-1.24-.604-1.24-1.334 0-.74.505-1.312 1.224-1.312.462 0 .746.223.872.422h.015v-.35h.604v3.751h.001zm-1.349-1.698c.462 0 .74-.411.74-.802 0-.39-.277-.812-.74-.812-.488 0-.724.41-.724.801-.001.391.235.813.724.813zM23.602 13.712h-.599v-.402h-.01c-.111.25-.41.474-.783.474-.656 0-.93-.5-.93-1.01v-1.562h.63v1.385c0 .298.068.667.473.667.4 0 .589-.344.589-.677v-1.375h.63v2.5zM24.232 11.157h.63v2.5h-.63v-2.5zM27.22 11.904c-.1-.141-.315-.245-.52-.245-.461 0-.693.41-.693.801 0 .391.236.802.714.802.195 0 .41-.078.531-.223l.394.396c-.21.223-.557.349-.93.349-.746 0-1.365-.49-1.365-1.323 0-.812.61-1.322 1.35-1.322.367 0 .75.145.95.39l-.43.375zM27.96 9.775h.631v2.49h.015l.957-1.053h.808l-1.092 1.13 1.161 1.37h-.835l-.998-1.281h-.015v1.28h-.63V9.776h-.001zM31.36 9.775v1.756h.015c.131-.162.383-.39.846-.39.72 0 1.223.572 1.223 1.312 0 .729-.473 1.333-1.24 1.333-.352 0-.693-.161-.866-.448h-.011v.376h-.599V9.775h.632zm.72 1.875c-.462 0-.741.422-.741.813 0 .39.278.802.74.802.489 0 .725-.422.725-.813 0-.39-.236-.802-.725-.802zM35.088 11.139c.761 0 1.37.526 1.37 1.312 0 .787-.609 1.334-1.37 1.334-.762 0-1.371-.547-1.371-1.334 0-.786.61-1.312 1.37-1.312zm0 2.124c.498 0 .73-.422.73-.813 0-.39-.231-.801-.73-.801-.5 0-.73.41-.73.802 0 .39.23.812.73.812zM38.103 11.139c.762 0 1.371.526 1.371 1.312 0 .787-.61 1.334-1.37 1.334-.762 0-1.372-.547-1.372-1.334 0-.786.61-1.312 1.371-1.312zm0 2.124c.5 0 .73-.422.73-.813 0-.39-.23-.801-.73-.801-.499 0-.73.41-.73.802 0 .39.231.812.73.812zM39.856 9.775h.63v2.49h.016l.956-1.053h.809l-1.092 1.13 1.16 1.37h-.834l-.998-1.281h-.015v1.28h-.63V9.776h-.002zM44.056 11.878a.718.718 0 00-.551-.272c-.2 0-.405.073-.405.272 0 .193.195.245.546.327.373.09.814.255.814.745 0 .61-.499.833-1.05.833-.388 0-.793-.146-1.035-.411l.415-.386a.825.825 0 00.645.313c.184 0 .405-.073.405-.297 0-.209-.195-.271-.578-.36-.373-.088-.746-.24-.746-.708 0-.557.505-.796 1.004-.796.362 0 .74.124.945.38l-.409.36zM24.96 7.798c0 .634.512 1.098 1.162 1.098.65 0 1.163-.463 1.163-1.098V6.343h-.63v1.38c0 .343-.231.572-.534.572-.305 0-.535-.23-.535-.571V6.343h-.629l.004 1.455zM28.967 6.927h.751v1.918h.63V6.927h.75v-.584h-2.131v.584zM28.56 6.343h-.63v2.502h.63V6.343zM22.417 6.927h.752v1.918h.629V6.927h.75v-.584h-2.131v.584zM19.117 6.343h-.63v2.502h.63V6.343zM22.086 7.39c0-.635-.513-1.098-1.163-1.098s-1.162.462-1.162 1.097v1.456h.629V7.464c0-.342.23-.571.534-.571.304 0 .534.229.534.57v1.382h.63l-.002-1.456z" fill="#fff"/></g><path stroke="#fff" stroke-width=".283" d="M2.773 19.064h50.666"/><defs><clipPath id="clip0_2171_184954"><path fill="#fff" transform="translate(8.753 5.898)" d="M0 0h35.713v9.062H0z"/></clipPath></defs></svg>