<svg width="56" height="66" viewBox="0 0 56 66" fill="none" xmlns="http://www.w3.org/2000/svg"><rect x=".624" y=".949" width="54.713" height="64.713" rx="4.06" fill="#000" fill-opacity=".45" stroke="#fff" stroke-width=".287"/><g clip-path="url(#clip0_2163_102878)"><path d="M12.68 14.454c2.251 0 4.075-1.837 4.075-4.103 0-2.267-1.824-4.104-4.074-4.104s-4.075 1.837-4.075 4.104c0 2.266 1.825 4.103 4.075 4.103z" fill="#2CA01C"/><path d="M11.323 8.756a1.59 1.59 0 00-1.585 1.596 1.59 1.59 0 001.585 1.596h.226v-.593h-.226a1 1 0 01-.996-1.003 1 1 0 01.996-1.003h.544v3.1a.59.59 0 00.588.593V8.756h-1.132zM14.04 11.946a1.59 1.59 0 001.584-1.596 1.59 1.59 0 00-1.584-1.596h-.226v.593h.226a1 1 0 01.996 1.003 1 1 0 01-.996 1.004h-.544V8.253a.59.59 0 00-.589-.593v4.286h1.133zM20.625 15.451h-.63v-1.607h-.012c-.162.253-.483.412-.834.412-.767 0-1.24-.614-1.24-1.354 0-.752.505-1.334 1.223-1.334.462 0 .746.227.872.429h.016v-.355h.604v3.81zm-1.35-1.724c.462 0 .741-.418.741-.815 0-.396-.278-.825-.74-.825-.488 0-.725.418-.725.815 0 .396.236.825.725.825zM23.454 14.181h-.598v-.407h-.011c-.11.253-.41.481-.782.481-.657 0-.93-.508-.93-1.026v-1.586h.63v1.407c0 .301.068.676.473.676.399 0 .588-.349.588-.687v-1.396h.63v2.538zM24.087 11.587h.63v2.539h-.63v-2.54zM27.075 12.345c-.1-.143-.315-.249-.52-.249-.462 0-.693.418-.693.815 0 .396.236.814.714.814.195 0 .41-.08.53-.227l.394.402c-.21.227-.556.355-.93.355-.745 0-1.365-.497-1.365-1.343 0-.826.61-1.344 1.35-1.344.368 0 .75.148.95.397l-.43.38zM27.815 10.182h.63v2.527h.016l.956-1.068h.809l-1.092 1.148 1.16 1.39h-.834l-.998-1.3h-.015v1.3h-.63v-3.997h-.002zM31.213 10.183v1.783h.015c.132-.165.383-.397.846-.397.72 0 1.223.582 1.223 1.333 0 .74-.472 1.354-1.24 1.354-.351 0-.693-.164-.866-.455h-.01v.381h-.599v-4h.631zm.72 1.904c-.462 0-.74.428-.74.825 0 .397.277.814.74.814.488 0 .724-.428.724-.825 0-.397-.236-.814-.724-.814zM34.941 11.568c.762 0 1.371.535 1.371 1.334s-.61 1.354-1.37 1.354c-.762 0-1.372-.556-1.372-1.354 0-.8.61-1.334 1.371-1.334zm0 2.158c.499 0 .73-.429.73-.825 0-.397-.231-.815-.73-.815s-.73.418-.73.815c0 .396.231.825.73.825zM37.956 11.568c.761 0 1.37.535 1.37 1.334s-.609 1.354-1.37 1.354c-.762 0-1.371-.556-1.371-1.354 0-.8.61-1.334 1.37-1.334zm0 2.158c.499 0 .73-.429.73-.825 0-.397-.231-.815-.73-.815-.5 0-.73.418-.73.815 0 .396.23.825.73.825zM39.71 10.183h.63v2.527h.015l.957-1.068h.808l-1.092 1.148 1.161 1.39h-.835l-.998-1.3h-.015v1.3h-.63v-3.997h-.001zM43.909 12.32a.714.714 0 00-.551-.276c-.2 0-.405.074-.405.276 0 .196.194.249.546.333.373.09.814.259.814.756 0 .619-.5.846-1.05.846-.389 0-.794-.148-1.035-.418l.414-.391a.82.82 0 00.646.317c.184 0 .405-.073.405-.302 0-.211-.195-.275-.578-.364-.373-.09-.746-.244-.746-.72 0-.566.504-.809 1.003-.809.362 0 .74.127.945.386l-.408.366zM24.814 8.177c0 .643.512 1.114 1.162 1.114.65 0 1.163-.47 1.163-1.114V6.698h-.63v1.403c0 .347-.232.58-.535.58-.304 0-.534-.233-.534-.58V6.698h-.63l.004 1.479zM28.821 7.292h.752V9.24h.63V7.292h.75v-.594H28.82v.594zM28.414 6.698h-.629V9.24h.63V6.698zM22.271 7.292h.752V9.24h.63V7.292h.75v-.594h-2.131v.594zM18.97 6.698h-.63V9.24h.63V6.698zM21.94 7.76c0-.643-.513-1.114-1.163-1.114s-1.163.47-1.163 1.115v1.478h.63V7.837c0-.348.23-.58.534-.58.303 0 .534.232.534.58v1.402h.63l-.003-1.478z" fill="#fff"/></g><path stroke="#fff" stroke-width=".287" d="M2.628 19.617h50.666"/><defs><clipPath id="clip0_2163_102878"><path fill="#fff" transform="translate(8.606 6.247)" d="M0 0h35.713v9.203H0z"/></clipPath></defs></svg>