<svg width="11" height="4" viewBox="0 0 11 4" fill="none" xmlns="http://www.w3.org/2000/svg"><path d="M3.082.973v.149a.751.751 0 01.469.16l-.183.189a.398.398 0 00-.286-.12v.455c.23.072.48.178.48.482 0 .313-.23.473-.48.48v.162H2.96v-.162a.786.786 0 01-.529-.21l.198-.189a.487.487 0 00.331.167v-.5c-.263-.072-.47-.176-.47-.464 0-.268.23-.43.47-.446V.973h.122zm-.122.802V1.35c-.105.012-.2.077-.2.207 0 .124.086.183.2.217zm.122.297v.464c.126-.007.21-.1.21-.232 0-.133-.09-.191-.21-.232zm.787.671v-.248l.615-.603c.099-.097.162-.19.162-.313 0-.149-.11-.246-.255-.246-.153 0-.25.117-.27.273l-.263-.04c.031-.264.245-.458.538-.458.277 0 .532.16.532.466 0 .205-.115.347-.257.482l-.46.44h.719v.247H3.869zm1.273.284l.158-.595h.261l-.191.595h-.228zm1.315-.284v-.33h-.736v-.24l.677-1.024h.325V2.18h.223v.232h-.223v.331h-.266zm0-.563v-.714h-.004L6 2.18h.457zM8.185 1.15v.243h-.65l-.016.344c.05-.013.13-.02.187-.02.313 0 .55.183.55.505 0 .353-.264.563-.582.563-.266 0-.455-.135-.538-.35l.245-.09a.31.31 0 00.3.21c.16 0 .297-.11.297-.304 0-.246-.182-.318-.356-.318a.911.911 0 00-.371.088l.027-.871h.907zm1.488.797c0 .516-.2.838-.561.838-.363 0-.566-.322-.566-.838s.203-.838.566-.838c.36 0 .56.322.56.838zm-.277 0c0-.223-.043-.613-.284-.613-.243 0-.289.39-.289.613 0 .223.046.608.289.608.24 0 .284-.385.284-.608z" fill="#fff"/><path fill-rule="evenodd" clip-rule="evenodd" d="M1.096 2.176c.347 0 .629-.251.629-.561 0-.31-.282-.561-.629-.561-.347 0-.628.251-.628.561 0 .31.281.561.628.561z" fill="#00D7D7"/></svg>