<svg width="9" height="4" viewBox="0 0 9 4" fill="none" xmlns="http://www.w3.org/2000/svg"><path d="M3.07 1.12v.149a.751.751 0 01.468.16l-.183.19a.398.398 0 00-.286-.12v.455c.23.072.48.178.48.482 0 .313-.23.473-.48.48v.162h-.121v-.163a.786.786 0 01-.53-.21l.199-.188a.487.487 0 00.33.166v-.5c-.263-.072-.47-.175-.47-.464 0-.268.23-.43.47-.445V1.12h.122zm-.122.802V1.5c-.106.011-.2.076-.2.207 0 .124.085.182.2.216zm.121.297v.464c.127-.006.21-.099.21-.232 0-.132-.09-.191-.21-.232zm1.11-.051V1.95h.071c.16 0 .34-.045.34-.24 0-.145-.117-.23-.252-.23-.13 0-.223.083-.254.205l-.255-.066c.057-.214.266-.365.52-.365.28 0 .514.151.514.437a.368.368 0 01-.286.36v.005c.194.039.329.187.329.383 0 .331-.286.491-.557.491-.268 0-.493-.11-.578-.376l.252-.079a.316.316 0 00.317.225c.14 0 .293-.072.293-.263 0-.207-.218-.27-.387-.27h-.068zm1.011-.629v-.243h1.084v.248L5.636 2.89H5.32l.67-1.352H5.19zm2.398-.243v.243h-.651l-.016.345c.05-.014.13-.02.187-.02.313 0 .55.182.55.504 0 .354-.264.563-.582.563-.265 0-.455-.135-.538-.349l.245-.09a.31.31 0 00.3.21c.16 0 .297-.11.297-.305 0-.245-.182-.317-.356-.317a.911.911 0 00-.371.088l.027-.872h.908z" fill="#fff"/><path fill-rule="evenodd" clip-rule="evenodd" d="M1.09 2.308c.346 0 .626-.249.626-.555 0-.306-.28-.555-.625-.555s-.625.249-.625.555c0 .306.28.555.625.555z" fill="#008380"/></svg>