<svg width="9" height="2" viewBox="0 0 9 2" fill="none" xmlns="http://www.w3.org/2000/svg"><path d="M.287.257l.518 1.385H.81L1.328.257H1.5l-.61 1.595H.719L.111.257h.176zm1.415.986h.718C2.411 1.045 2.29.9 2.07.9a.373.373 0 00-.368.344zm.873.05c0 .02 0 .045-.002.072H1.7a.384.384 0 00.385.383.4.4 0 00.338-.182l.115.09a.55.55 0 01-.453.223.535.535 0 01-.545-.554c0-.318.232-.555.532-.555.331 0 .504.235.504.523zm.488-.322h.004c.056-.122.205-.2.354-.2.268 0 .4.173.4.434v.647h-.153v-.584c0-.22-.065-.37-.286-.37-.162 0-.32.131-.32.413v.54H2.91V.15h.154V.97zm1.31-.173v1.054H4.22V.798h.153zm.032-.406A.11.11 0 014.297.5a.11.11 0 01-.108-.108.11.11 0 01.108-.108.11.11 0 01.108.108zm1.254.56l-.119.087a.32.32 0 00-.27-.14c-.246 0-.403.185-.403.426 0 .238.155.423.4.423a.34.34 0 00.287-.137l.114.085a.49.49 0 01-.4.183c-.34 0-.564-.237-.564-.554 0-.318.223-.555.563-.555.142 0 .302.061.392.183zM6.065.15v1.703h-.153V.149h.153zm.495 1.094h.719C7.269 1.045 7.148.9 6.929.9a.373.373 0 00-.369.344zm.874.05c0 .02 0 .045-.002.072h-.874a.384.384 0 00.385.383.4.4 0 00.338-.182l.115.09a.55.55 0 01-.453.223.535.535 0 01-.545-.554c0-.318.232-.555.532-.555.33 0 .504.235.504.523zM8.441.96l-.117.088a.286.286 0 00-.259-.15c-.11 0-.223.048-.223.165 0 .1.08.144.253.18.247.052.364.145.364.309 0 .241-.202.327-.396.327a.492.492 0 01-.417-.205l.122-.09a.349.349 0 00.293.164c.13 0 .248-.047.248-.185 0-.11-.11-.155-.311-.202-.124-.03-.302-.084-.302-.284 0-.214.185-.307.376-.307.146 0 .302.07.37.19z" fill="#fff"/></svg>