<svg width="34" height="6" viewBox="0 0 34 6" fill="none" xmlns="http://www.w3.org/2000/svg"><path d="M.926 4.227V.367h1.34c.726 0 1.424.29 1.424 1.107 0 .556-.344.921-.884 1.04l1.03 1.713h-.828L2.114 2.59h-.501v1.636H.926zm.687-2.197h.561c.387 0 .829-.093.829-.562 0-.42-.415-.523-.769-.523h-.621V2.03zm2.928.627h1.34c0-.338-.19-.633-.615-.633-.387 0-.698.267-.725.633zm1.995.294c0 .06 0 .115-.005.174H4.54c.027.371.365.644.747.644.327 0 .545-.131.692-.338l.436.349c-.256.348-.627.523-1.123.523-.807 0-1.406-.518-1.406-1.368 0-.845.594-1.401 1.384-1.401.73 0 1.265.474 1.265 1.417zm2.65-1.008l-.447.392c-.103-.147-.327-.256-.54-.256-.479 0-.719.43-.719.84 0 .408.245.839.742.839.201 0 .425-.082.55-.235l.409.415c-.218.234-.578.365-.965.365-.774 0-1.417-.513-1.417-1.385 0-.85.632-1.384 1.4-1.384.382 0 .78.152.987.409zm.71.714h1.341c0-.338-.19-.633-.616-.633-.386 0-.697.267-.725.633zm1.996.294c0 .06 0 .115-.006.174h-1.99c.028.371.366.644.747.644.327 0 .545-.131.693-.338l.436.349c-.257.348-.627.523-1.123.523-.807 0-1.407-.518-1.407-1.368 0-.845.595-1.401 1.385-1.401.73 0 1.265.474 1.265 1.417zm.426 1.276V1.61h.654v2.617h-.654zM12.225.722c0-.208.175-.393.415-.393s.425.17.425.393-.186.392-.425.392a.403.403 0 01-.415-.392zm1.323.888h.626v.365h.017c.13-.207.425-.441.905-.441.746 0 1.27.6 1.27 1.373 0 .764-.49 1.396-1.287 1.396-.365 0-.697-.164-.866-.425h-.011v1.657h-.654V1.61zM15.7 2.907c0-.408-.246-.839-.753-.839-.48 0-.768.442-.768.85 0 .41.289.84.768.84.507 0 .753-.442.753-.85zm1.16-.774h-.458V1.61h.458V.852h.643v.758h.654v.523h-.654V3.35c0 .234.054.403.343.403a.684.684 0 00.278-.054l.022.512c-.114.044-.289.071-.436.071-.692 0-.85-.425-.85-.927v-1.22zm5.145-1.45l-.447.491a.946.946 0 00-.709-.333c-.316 0-.681.153-.681.53 0 .354.3.457.735.593.497.153 1.129.371 1.129 1.129 0 .828-.649 1.232-1.407 1.232-.501 0-1.019-.191-1.324-.55l.49-.459c.191.262.54.425.845.425.322 0 .698-.158.698-.572 0-.403-.403-.518-.888-.67-.47-.148-.976-.377-.976-1.096 0-.785.714-1.134 1.412-1.134.387 0 .828.136 1.123.414zm2.089 3.544v-.333h-.017c-.13.229-.441.398-.812.398-.42 0-.981-.202-.981-.812 0-.78.981-.889 1.799-.889v-.065c0-.322-.273-.48-.6-.48-.278 0-.545.131-.714.3l-.338-.398a1.65 1.65 0 011.107-.414c.937 0 1.166.578 1.166 1.1v1.593h-.61zm-.011-1.102v-.092h-.148c-.414 0-.997.049-.997.436 0 .25.234.327.458.327.447 0 .687-.256.687-.67zm1.83 1.102L24.857 1.61h.714l.686 1.908h.011l.693-1.908h.692l-1.041 2.617h-.698zm2.413-1.57h1.341c0-.338-.19-.633-.616-.633-.387 0-.697.267-.725.633zm1.995.294c0 .06 0 .115-.005.174h-1.99c.027.371.365.644.747.644.327 0 .545-.131.692-.338l.436.349c-.256.348-.627.523-1.123.523-.806 0-1.406-.518-1.406-1.368 0-.845.594-1.401 1.385-1.401.73 0 1.264.474 1.264 1.417zM33.398.106v4.12h-.622v-.392h-.01c-.18.3-.535.469-.9.469-.796 0-1.286-.632-1.286-1.396 0-.774.523-1.373 1.27-1.373.48 0 .741.24.877.409h.017V.106h.654zm-2.153 2.801c0 .41.245.85.752.85.48 0 .769-.43.769-.839s-.29-.85-.769-.85c-.507 0-.752.43-.752.84z" fill="#fff"/></svg>