<svg width="22" height="23" viewBox="0 0 22 23" fill="none" xmlns="http://www.w3.org/2000/svg"><path d="M.579 12.335a10.5 10.5 0 012.739-7.979l2.703 2.49a6.825 6.825 0 00-1.78 5.185l-3.662.304z" fill="#00A6A4" stroke="#fff" stroke-width=".264"/><path d="M11.044.968a10.498 10.498 0 016.449 18.785l-2.257-2.9a6.825 6.825 0 00-4.192-12.21V.968z" fill="#00D7D7" stroke="#fff" stroke-width=".264"/><path d="M17.49 19.755a10.498 10.498 0 01-16.912-7.42l3.662-.303a6.825 6.825 0 0010.993 4.822l2.257 2.9z" fill="#00C1BF" stroke="#fff" stroke-width=".264"/><path d="M3.318 4.356A10.5 10.5 0 0111.043.968v3.675a6.824 6.824 0 00-5.021 2.202L3.318 4.356z" fill="#008481" stroke="#fff" stroke-width=".264"/></svg>