<svg width="11" height="4" viewBox="0 0 11 4" fill="none" xmlns="http://www.w3.org/2000/svg"><path d="M3.082 1.04v.148a.751.751 0 01.469.16l-.183.189a.398.398 0 00-.286-.12v.456c.23.072.48.178.48.482 0 .313-.23.473-.48.48v.162H2.96v-.163a.786.786 0 01-.529-.21l.198-.188a.487.487 0 00.331.166v-.5c-.263-.072-.47-.175-.47-.464 0-.268.23-.43.47-.446V1.04h.122zm-.122.801v-.423c-.105.01-.2.076-.2.207 0 .124.086.182.2.216zm.122.297v.464c.126-.006.21-.099.21-.232s-.09-.191-.21-.232zm1.26.672V1.544l-.315.259-.158-.187.498-.401h.245V2.81h-.27zm.8.283L5.3 2.5h.261l-.191.594h-.228zm.687-.283v-.248l.615-.604c.099-.097.162-.189.162-.313 0-.148-.11-.245-.255-.245-.153 0-.25.117-.27.272l-.264-.04c.032-.264.246-.458.539-.458.277 0 .531.16.531.467 0 .205-.115.347-.257.482l-.459.439h.718v.248H5.83zm2.356-1.595v.243h-.65l-.016.345c.05-.014.13-.02.187-.02.313 0 .55.182.55.504 0 .354-.264.563-.582.563-.266 0-.455-.135-.538-.349l.245-.09a.31.31 0 00.3.21c.16 0 .297-.111.297-.305 0-.245-.182-.317-.356-.317a.911.911 0 00-.371.088l.027-.872h.907zm1.488.797c0 .516-.2.838-.561.838-.363 0-.566-.322-.566-.838 0-.515.203-.838.566-.838.36 0 .56.323.56.838zm-.277 0c0-.223-.043-.612-.284-.612-.243 0-.289.39-.289.612 0 .223.046.608.289.608.24 0 .284-.385.284-.608z" fill="#fff"/><path fill-rule="evenodd" clip-rule="evenodd" d="M1.096 2.226c.347 0 .629-.248.629-.555 0-.306-.282-.554-.629-.554-.347 0-.628.248-.628.554 0 .307.281.555.628.555z" fill="#00C1BF"/></svg>