<svg width="7" height="2" viewBox="0 0 7 2" fill="none" xmlns="http://www.w3.org/2000/svg"><path d="M.98.287l.54 1.32h.002l.534-1.32h.247v1.595h-.162V.497h-.004L1.56 1.882h-.085L.898.497H.893v1.385H.731V.287H.98zm1.823.987h.718c-.009-.198-.13-.345-.349-.345a.373.373 0 00-.37.345zm.874.05c0 .02 0 .044-.003.071h-.873a.384.384 0 00.385.383.4.4 0 00.338-.182l.114.09a.55.55 0 01-.452.223.535.535 0 01-.545-.554c0-.318.232-.554.531-.554.331 0 .505.234.505.522zm.98-.089v-.033c0-.183-.099-.273-.281-.273a.448.448 0 00-.313.124L3.977.952A.59.59 0 014.392.8c.227 0 .41.126.41.383v.461c0 .081.006.178.017.237h-.137a1.051 1.051 0 01-.016-.171h-.004a.424.424 0 01-.383.198c-.16 0-.365-.086-.365-.32 0-.324.358-.354.743-.354zm0 .12h-.045c-.25 0-.54.027-.54.227 0 .151.128.2.247.2.217 0 .338-.161.338-.348v-.08zM5.354.179v1.703H5.2V.179h.153zM6.44.99l-.117.089a.286.286 0 00-.259-.149c-.11 0-.223.047-.223.165 0 .099.08.144.253.18.247.052.364.144.364.308 0 .241-.202.327-.396.327a.492.492 0 01-.417-.205l.122-.09a.349.349 0 00.293.164c.13 0 .248-.047.248-.184 0-.11-.11-.156-.311-.203-.124-.03-.302-.083-.302-.284 0-.214.185-.306.376-.306.146 0 .302.07.37.189z" fill="#fff"/></svg>