<svg width="24" height="7" viewBox="0 0 24 7" fill="none" xmlns="http://www.w3.org/2000/svg"><path d="M.182 5.155V.97h2.772v.65H.927v1.064h1.92v.627H.928v1.182H3.06v.662H.18zm2.904 0L4.24 3.648l-1.023-1.33h.852l.614.88.633-.88h.816l-1.017 1.33 1.158 1.507H5.41L4.67 4.121l-.744 1.034h-.84zm3.37-2.837h.68v.396h.018c.142-.225.46-.479.981-.479.81 0 1.377.65 1.377 1.49 0 .827-.532 1.513-1.395 1.513-.396 0-.756-.177-.94-.461h-.011v1.797h-.71V2.318zm2.335 1.407c0-.444-.266-.91-.815-.91-.52 0-.834.478-.834.922 0 .443.313.91.834.91.55 0 .815-.479.815-.922zm1.713-.272h1.455c0-.367-.207-.686-.668-.686-.42 0-.757.29-.787.686zm2.164.319c0 .065 0 .124-.006.19h-2.158c.03.401.396.697.81.697.355 0 .591-.142.751-.367l.473.379c-.278.378-.68.567-1.218.567-.875 0-1.525-.562-1.525-1.484 0-.916.644-1.519 1.502-1.519.792 0 1.37.514 1.37 1.537zm.45 1.383V2.318h.674v.455h.012c.124-.284.461-.538.88-.538.74 0 1.047.568 1.047 1.147v1.773h-.71V3.583c0-.337-.076-.757-.531-.757-.45 0-.662.39-.662.769v1.56h-.71zm5.22-2.488l-.46.408a.804.804 0 00-.622-.308c-.224 0-.455.083-.455.308 0 .218.22.277.615.372.42.1.916.29.916.845 0 .692-.561.946-1.182.946-.437 0-.892-.165-1.164-.467l.467-.437c.153.2.42.354.727.354.207 0 .455-.082.455-.337 0-.236-.219-.307-.65-.408-.42-.1-.84-.271-.84-.803 0-.633.568-.905 1.13-.905.407 0 .833.142 1.063.432zm.918.786h1.455c0-.367-.207-.686-.668-.686-.42 0-.757.29-.787.686zm2.164.319c0 .065 0 .124-.006.19h-2.158c.03.401.397.697.81.697.355 0 .591-.142.751-.367l.473.379c-.278.378-.68.567-1.218.567-.875 0-1.525-.562-1.525-1.484 0-.916.645-1.519 1.502-1.519.792 0 1.371.514 1.371 1.537zm2.466-1.105l-.46.408a.804.804 0 00-.621-.308c-.225 0-.456.083-.456.308 0 .218.22.277.615.372.42.1.916.29.916.845 0 .692-.561.946-1.182.946-.437 0-.893-.165-1.164-.467L22 4.334c.153.2.42.354.727.354.207 0 .455-.082.455-.337 0-.236-.219-.307-.65-.408-.42-.1-.84-.271-.84-.803 0-.633.568-.905 1.13-.905.407 0 .833.142 1.063.432z" fill="#fff"/></svg>