<svg width="195" height="47" viewBox="0 0 195 47" fill="none" xmlns="http://www.w3.org/2000/svg"><path d="M14.914 15.265c-1.364 1.584-3.432 2.574-6.05 2.574-4.796 0-8.382-3.344-8.382-8.228 0-4.994 3.696-8.184 8.448-8.184 2.178 0 4.532.792 5.83 2.288l-2.552 2.552c-.704-.968-1.958-1.43-3.146-1.43-2.618 0-4.488 2.024-4.488 4.774 0 2.838 1.826 4.774 4.422 4.774 1.474 0 2.64-.66 3.3-1.584l2.618 2.464zm4.626 2.156h-3.652V.789h3.652V17.42zm8.84-4.4v-.374h-.461c-1.584 0-3.366.198-3.366 1.496 0 .836.836 1.122 1.562 1.122 1.452 0 2.266-.88 2.266-2.244zm-4.795-3.102L21.759 7.96c1.276-1.21 3.102-1.848 4.884-1.848 3.674 0 5.038 1.804 5.038 5.786v5.522h-3.3v-1.166h-.066c-.55.902-1.804 1.43-3.102 1.43-1.738 0-3.982-.858-3.982-3.432 0-3.168 3.85-3.696 7.04-3.696v-.176c0-1.078-.858-1.584-1.98-1.584-1.034 0-2.046.506-2.706 1.122zm14.22-6.952c0 1.122-.923 1.98-2.067 1.98-1.166 0-2.068-.902-2.068-1.98 0-1.056.902-1.98 2.068-1.98 1.144 0 2.068.88 2.068 1.98zm-.263 14.454h-3.608V6.465h3.608V17.42zm19.973 0h-3.608v-5.984c0-1.254-.286-2.31-1.562-2.31-1.232 0-1.826 1.144-1.826 2.376v5.918h-3.608v-6.248c0-1.254-.484-2.046-1.562-2.046-1.144 0-1.804 1.034-1.804 2.354v5.94h-3.63V6.465h3.498v1.518h.044c.506-.924 1.628-1.826 3.278-1.826 1.584 0 2.684.682 3.3 1.87.726-1.144 1.87-1.87 3.498-1.87 2.97 0 3.982 2.42 3.982 4.488v6.776zm10.16-6.732h4.643c0-1.144-.726-2.09-2.156-2.09-1.386 0-2.398.968-2.486 2.09zm7.965 1.386c0 .286 0 .594-.022.858h-7.942c.11 1.21 1.32 2.068 2.618 2.068 1.144 0 1.936-.484 2.42-1.144l2.508 1.584c-1.034 1.496-2.75 2.332-4.972 2.332-3.3 0-6.028-2.09-6.028-5.786 0-3.586 2.596-5.874 5.918-5.874 3.234 0 5.5 2.222 5.5 5.962zm12.841-5.61L84.169 17.42h-3.894L75.963 6.465h3.982l2.31 7.106h.066l2.31-7.106h3.85zm3.815 4.224h4.641c0-1.144-.725-2.09-2.156-2.09-1.386 0-2.398.968-2.486 2.09zm7.963 1.386c0 .286 0 .594-.022.858h-7.941c.11 1.21 1.32 2.068 2.617 2.068 1.145 0 1.937-.484 2.42-1.144l2.508 1.584c-1.033 1.496-2.75 2.332-4.971 2.332-3.3 0-6.029-2.09-6.029-5.786 0-3.586 2.597-5.874 5.919-5.874 3.233 0 5.499 2.222 5.499 5.962zm9.014-5.83l-.154 3.168a3.52 3.52 0 00-.924-.11c-1.936 0-2.574 1.584-2.574 2.486v5.632h-3.608V6.465h3.476v1.584h.044c.55-1.1 1.628-1.892 2.97-1.892.286 0 .594.022.77.088zm12.067.22l-4.906 12.606c-.88 2.288-2.068 3.63-4.818 3.63-.682 0-1.452-.11-1.98-.242l.396-3.036c.352.11.814.198 1.166.198 1.122 0 1.496-.528 1.848-1.474l.352-.902-4.576-10.78h4.004l2.442 7.04h.066l2.178-7.04h3.828zM13.198 35.899c0 3.058-1.914 5.83-5.214 5.83-1.342 0-2.64-.572-3.322-1.518h-.044v6.49H1.01V30.465h3.432v1.342h.066c.66-.88 1.892-1.65 3.498-1.65 3.19 0 5.192 2.684 5.192 5.742zm-3.498 0c0-1.408-.858-2.794-2.574-2.794-1.628 0-2.64 1.43-2.64 2.816 0 1.43 1.012 2.816 2.64 2.816 1.716 0 2.574-1.408 2.574-2.838zm16.9 0c0 3.586-2.772 5.874-6.094 5.874-3.3 0-6.072-2.288-6.072-5.874s2.772-5.786 6.072-5.786c3.322 0 6.095 2.2 6.095 5.786zm-3.476 0c0-1.408-.923-2.794-2.617-2.794-1.695 0-2.575 1.386-2.575 2.794 0 1.408.902 2.838 2.597 2.838 1.694 0 2.596-1.43 2.596-2.838zm13.703-4.246l-1.98 2.046c-.572-.55-1.408-.99-2.288-.99-.682 0-1.364.242-1.364.88 0 .616.594.792 2.002 1.1 1.672.374 3.498 1.21 3.498 3.344 0 2.772-2.442 3.74-4.686 3.74-1.782 0-3.63-.594-4.774-1.694l2.024-2.134c.638.704 1.628 1.232 2.684 1.232.594 0 1.298-.242 1.298-.946 0-.682-.682-.902-2.178-1.254-1.518-.352-3.19-1.122-3.19-3.19 0-2.618 2.464-3.674 4.554-3.674 1.628 0 3.322.528 4.4 1.54zm9.893 0l-1.98 2.046c-.572-.55-1.408-.99-2.288-.99-.682 0-1.364.242-1.364.88 0 .616.594.792 2.002 1.1 1.672.374 3.498 1.21 3.498 3.344 0 2.772-2.442 3.74-4.686 3.74-1.782 0-3.63-.594-4.774-1.694l2.024-2.134c.638.704 1.628 1.232 2.684 1.232.594 0 1.298-.242 1.298-.946 0-.682-.682-.902-2.178-1.254-1.518-.352-3.19-1.122-3.19-3.19 0-2.618 2.464-3.674 4.554-3.674 1.628 0 3.322.528 4.4 1.54zm5.383-4.686c0 1.122-.924 1.98-2.068 1.98-1.166 0-2.068-.902-2.068-1.98 0-1.056.902-1.98 2.068-1.98 1.144 0 2.068.88 2.068 1.98zm-.264 14.454H48.23V30.465h3.608V41.42zm14.584-5.522c0 3.058-1.914 5.83-5.214 5.83-1.452 0-2.882-.638-3.586-1.738h-.044v1.43h-3.322V24.789h3.608v6.842h.044c.616-.726 1.738-1.474 3.344-1.474 3.19 0 5.17 2.684 5.17 5.742zm-3.476 0c0-1.408-.88-2.794-2.596-2.794-1.628 0-2.64 1.43-2.64 2.816 0 1.43 1.012 2.816 2.64 2.816 1.716 0 2.596-1.408 2.596-2.838zm8.98 5.522h-3.652V24.789h3.652V41.42zm5.276-6.732h4.642c0-1.144-.726-2.09-2.156-2.09-1.386 0-2.398.968-2.486 2.09zm7.964 1.386c0 .286 0 .594-.022.858h-7.942c.11 1.21 1.32 2.068 2.618 2.068 1.144 0 1.936-.484 2.42-1.144l2.508 1.584c-1.034 1.496-2.75 2.332-4.972 2.332-3.3 0-6.028-2.09-6.028-5.786 0-3.586 2.596-5.874 5.918-5.874 3.234 0 5.5 2.222 5.5 5.962zm18.386 5.346h-3.322v-1.43h-.044c-.704 1.1-2.134 1.738-3.586 1.738-3.3 0-5.214-2.772-5.214-5.83 0-3.058 1.98-5.742 5.17-5.742 1.606 0 2.728.748 3.344 1.474h.044v-6.842h3.608V41.42zm-3.454-5.5c0-1.386-1.012-2.816-2.64-2.816-1.716 0-2.596 1.386-2.596 2.794 0 1.43.88 2.838 2.596 2.838 1.628 0 2.64-1.386 2.64-2.816zm8.738-1.232h4.642c0-1.144-.726-2.09-2.156-2.09-1.386 0-2.398.968-2.486 2.09zm7.964 1.386c0 .286 0 .594-.022.858h-7.942c.11 1.21 1.32 2.068 2.618 2.068 1.144 0 1.936-.484 2.42-1.144l2.508 1.584c-1.034 1.496-2.75 2.332-4.972 2.332-3.3 0-6.028-2.09-6.028-5.786 0-3.586 2.596-5.874 5.918-5.874 3.234 0 5.5 2.222 5.5 5.962zm13.37 5.346h-3.322v-1.43h-.044c-.704 1.1-2.134 1.738-3.586 1.738-3.3 0-5.214-2.772-5.214-5.83 0-3.058 1.98-5.742 5.17-5.742 1.606 0 2.728.748 3.344 1.474h.044v-6.842h3.608V41.42zm-3.454-5.5c0-1.386-1.012-2.816-2.64-2.816-1.716 0-2.596 1.386-2.596 2.794 0 1.43.88 2.838 2.596 2.838 1.628 0 2.64-1.386 2.64-2.816zm16.526 5.5h-3.476v-1.518h-.044c-.506.968-1.76 1.826-3.3 1.826-2.948 0-3.982-2.288-3.982-4.488v-6.776h3.63v5.94c0 1.232.308 2.332 1.628 2.332 1.254 0 1.936-1.1 1.936-2.354v-5.918h3.608V41.42zm11.974-9.834l-2.09 2.42c-.396-.528-1.188-.88-1.914-.88-1.518 0-2.53 1.298-2.53 2.816 0 1.518.99 2.794 2.574 2.794.726 0 1.518-.286 1.958-.814l2.002 2.442c-.902.88-2.442 1.408-4.048 1.408-3.454 0-6.138-2.2-6.138-5.83 0-3.564 2.706-5.83 6.116-5.83 1.562 0 3.212.594 4.07 1.474zm7.434 1.584h-2.574v4.18c0 1.012.33 1.54 1.364 1.54.352 0 .792-.066 1.056-.176l.044 2.64c-.484.176-1.32.33-2.09.33-2.926 0-3.894-1.562-3.894-3.894v-4.62h-1.76v-2.706h1.738v-2.882h3.542v2.882h2.574v2.706zm5.128-6.204c0 1.122-.924 1.98-2.068 1.98-1.166 0-2.068-.902-2.068-1.98 0-1.056.902-1.98 2.068-1.98 1.144 0 2.068.88 2.068 1.98zm-.264 14.454h-3.608V30.465h3.608V41.42zm13.99-5.522c0 3.586-2.772 5.874-6.094 5.874-3.3 0-6.072-2.288-6.072-5.874s2.772-5.786 6.072-5.786c3.322 0 6.094 2.2 6.094 5.786zm-3.476 0c0-1.408-.924-2.794-2.618-2.794s-2.574 1.386-2.574 2.794c0 1.408.902 2.838 2.596 2.838s2.596-1.43 2.596-2.838zm16.1 5.522h-3.63v-5.984c0-1.21-.33-2.31-1.628-2.31-1.276 0-1.936 1.1-1.936 2.354v5.94h-3.63V30.465h3.498v1.518h.044c.506-.968 1.76-1.826 3.278-1.826 2.948 0 4.004 2.288 4.004 4.488v6.776z" fill="#fff"/></svg>