<svg width="9" height="4" viewBox="0 0 9 4" fill="none" xmlns="http://www.w3.org/2000/svg"><path d="M3.07 1.07v.15a.75.75 0 01.468.16l-.183.188a.398.398 0 00-.286-.12v.456c.23.072.48.178.48.482 0 .313-.23.473-.48.48v.162h-.121v-.162a.786.786 0 01-.53-.21l.199-.189a.487.487 0 00.33.167v-.5c-.263-.072-.47-.176-.47-.464 0-.268.23-.43.47-.446V1.07h.122zm-.122.802V1.45c-.106.011-.2.077-.2.207 0 .124.085.183.2.216zm.121.298v.464c.127-.007.21-.1.21-.232 0-.133-.09-.192-.21-.232zm1.296-.924h.33l-.409.59.003.003a.501.501 0 01.169-.027c.281 0 .509.22.509.51 0 .339-.255.56-.581.56-.334 0-.584-.24-.584-.548 0-.182.061-.306.165-.47l.398-.618zm-.288 1.095a.3.3 0 00.306.31c.183 0 .307-.125.307-.315 0-.18-.122-.31-.302-.31-.183 0-.311.128-.311.315zm2.136-1.095v.243h-.651l-.016.345c.05-.013.13-.02.187-.02.313 0 .55.182.55.504 0 .354-.264.563-.581.563-.266 0-.455-.135-.539-.349l.246-.09a.31.31 0 00.3.21c.16 0 .297-.11.297-.304 0-.246-.183-.318-.356-.318a.911.911 0 00-.372.088l.027-.872h.908zm1.487.798c0 .515-.2.837-.56.837-.363 0-.566-.322-.566-.837 0-.516.203-.838.565-.838.36 0 .561.322.561.838zm-.277 0c0-.223-.043-.613-.284-.613-.243 0-.288.39-.288.613 0 .223.045.608.288.608.241 0 .284-.385.284-.608z" fill="#fff"/><path fill-rule="evenodd" clip-rule="evenodd" d="M1.09 2.265c.346 0 .626-.25.626-.558 0-.308-.28-.558-.625-.558s-.625.25-.625.558c0 .308.28.558.625.558z" fill="#00A6A4"/></svg>