<svg width="5" height="2" viewBox="0 0 5 2" fill="none" xmlns="http://www.w3.org/2000/svg"><path d="M.301 1.035v.745H.14V.186h.468c.316 0 .545.115.545.425 0 .237-.175.385-.407.41l.466.76h-.198L.57 1.034h-.27zm0-.71v.57h.282C.842.895.99.801.99.611.99.401.83.325.59.325H.3zm1.236.847h.719c-.01-.198-.13-.344-.35-.344a.373.373 0 00-.369.344zm.874.05c0 .02 0 .045-.002.072h-.874a.384.384 0 00.385.383.4.4 0 00.338-.183l.115.09a.55.55 0 01-.453.223.535.535 0 01-.545-.554c0-.317.232-.554.532-.554.33 0 .504.234.504.523zm.32-.496h.147c.005.057.01.135.01.18h.004C2.95.785 3.103.7 3.252.7c.268 0 .4.174.4.435v.646H3.5v-.583c0-.22-.066-.37-.286-.37-.162 0-.32.131-.32.413v.54H2.74V.958c0-.056-.003-.16-.01-.232zm1.794 0v.129h-.298v.614c0 .158.066.194.158.194a.314.314 0 00.133-.034l.007.133a.495.495 0 01-.18.032c-.113 0-.27-.05-.27-.282V.855h-.22V.726h.22V.43h.152v.297h.298z" fill="#fff"/></svg>