<svg width="244" height="42" viewBox="0 0 244 42" fill="none" xmlns="http://www.w3.org/2000/svg"><path d="M15.666 1.247l-5.984 8.976v6.6H5.92v-6.6L.068 1.247h4.554l3.322 5.764 3.322-5.764h4.4zm9.864 10.054c0 3.586-2.772 5.874-6.094 5.874-3.3 0-6.072-2.288-6.072-5.874s2.772-5.786 6.072-5.786c3.322 0 6.094 2.2 6.094 5.786zm-3.476 0c0-1.408-.924-2.794-2.618-2.794s-2.574 1.386-2.574 2.794c0 1.408.902 2.838 2.596 2.838s2.596-1.43 2.596-2.838zm15.969 5.522h-3.476v-1.518h-.044c-.506.968-1.76 1.826-3.3 1.826-2.948 0-3.982-2.288-3.982-4.488V5.867h3.63v5.94c0 1.232.308 2.332 1.628 2.332 1.254 0 1.936-1.1 1.936-2.354V5.867h3.608v10.956zM47.62 5.647l-.154 3.168a3.52 3.52 0 00-.924-.11c-1.936 0-2.574 1.584-2.574 2.486v5.632H40.36V5.867h3.476v1.584h.044c.55-1.1 1.628-1.892 2.97-1.892.286 0 .594.022.77.088zm18.205 5.654c0 3.058-1.914 5.83-5.214 5.83-1.452 0-2.882-.638-3.586-1.738h-.044v1.43h-3.322V.191h3.608v6.842h.044c.616-.726 1.738-1.474 3.344-1.474 3.19 0 5.17 2.684 5.17 5.742zm-3.476 0c0-1.408-.88-2.794-2.596-2.794-1.628 0-2.64 1.43-2.64 2.816 0 1.43 1.012 2.816 2.64 2.816 1.716 0 2.596-1.408 2.596-2.838zm15.976 5.522h-3.476v-1.518h-.044c-.506.968-1.76 1.826-3.3 1.826-2.948 0-3.982-2.288-3.982-4.488V5.867h3.63v5.94c0 1.232.308 2.332 1.628 2.332 1.254 0 1.936-1.1 1.936-2.354V5.867h3.608v10.956zm10.764-9.768l-1.98 2.046c-.572-.55-1.408-.99-2.288-.99-.682 0-1.364.242-1.364.88 0 .616.594.792 2.002 1.1 1.672.374 3.498 1.21 3.498 3.344 0 2.772-2.442 3.74-4.686 3.74-1.782 0-3.63-.594-4.774-1.694l2.024-2.134c.638.704 1.628 1.232 2.684 1.232.594 0 1.298-.242 1.298-.946 0-.682-.682-.902-2.178-1.254-1.518-.352-3.19-1.122-3.19-3.19 0-2.618 2.464-3.674 4.554-3.674 1.628 0 3.322.528 4.4 1.54zm5.383-4.686c0 1.122-.924 1.98-2.069 1.98-1.166 0-2.068-.902-2.068-1.98 0-1.056.903-1.98 2.069-1.98 1.144 0 2.068.88 2.068 1.98zm-.264 14.454H90.6V5.867h3.608v10.956zm13.197 0h-3.63V10.84c0-1.21-.33-2.31-1.628-2.31-1.276 0-1.936 1.1-1.936 2.354v5.94h-3.63V5.867h3.498v1.518h.044c.506-.968 1.76-1.826 3.278-1.826 2.948 0 4.004 2.288 4.004 4.488v6.776zm5.153-6.732h4.642c0-1.144-.726-2.09-2.156-2.09-1.386 0-2.398.968-2.486 2.09zm7.964 1.386c0 .286 0 .594-.022.858h-7.942c.11 1.21 1.32 2.068 2.618 2.068 1.144 0 1.936-.484 2.42-1.144l2.508 1.584c-1.034 1.496-2.75 2.332-4.972 2.332-3.3 0-6.028-2.09-6.028-5.786 0-3.586 2.596-5.874 5.918-5.874 3.234 0 5.5 2.222 5.5 5.962zm10.179-4.422l-1.98 2.046c-.572-.55-1.408-.99-2.288-.99-.682 0-1.364.242-1.364.88 0 .616.594.792 2.002 1.1 1.672.374 3.498 1.21 3.498 3.344 0 2.772-2.442 3.74-4.686 3.74-1.782 0-3.63-.594-4.774-1.694l2.024-2.134c.638.704 1.628 1.232 2.684 1.232.594 0 1.298-.242 1.298-.946 0-.682-.682-.902-2.178-1.254-1.518-.352-3.19-1.122-3.19-3.19 0-2.618 2.464-3.674 4.554-3.674 1.628 0 3.322.528 4.4 1.54zm9.893 0l-1.98 2.046c-.572-.55-1.408-.99-2.288-.99-.682 0-1.364.242-1.364.88 0 .616.594.792 2.002 1.1 1.672.374 3.498 1.21 3.498 3.344 0 2.772-2.442 3.74-4.686 3.74-1.782 0-3.63-.594-4.774-1.694l2.024-2.134c.638.704 1.628 1.232 2.684 1.232.594 0 1.298-.242 1.298-.946 0-.682-.682-.902-2.178-1.254-1.518-.352-3.19-1.122-3.19-3.19 0-2.618 2.464-3.674 4.554-3.674 1.628 0 3.322.528 4.4 1.54zm14.909 0l-1.98 2.046c-.572-.55-1.408-.99-2.288-.99-.682 0-1.364.242-1.364.88 0 .616.594.792 2.002 1.1 1.672.374 3.498 1.21 3.498 3.344 0 2.772-2.442 3.74-4.686 3.74-1.782 0-3.63-.594-4.774-1.694l2.024-2.134c.638.704 1.628 1.232 2.684 1.232.594 0 1.298-.242 1.298-.946 0-.682-.682-.902-2.178-1.254-1.518-.352-3.19-1.122-3.19-3.19 0-2.618 2.464-3.674 4.554-3.674 1.628 0 3.322.528 4.4 1.54zm12.159 9.768h-3.476v-1.518h-.044c-.506.968-1.76 1.826-3.3 1.826-2.948 0-3.982-2.288-3.982-4.488V5.867h3.63v5.94c0 1.232.308 2.332 1.628 2.332 1.254 0 1.936-1.1 1.936-2.354V5.867h3.608v10.956zm11.974-9.834l-2.09 2.42c-.396-.528-1.188-.88-1.914-.88-1.518 0-2.53 1.298-2.53 2.816 0 1.518.99 2.794 2.574 2.794.726 0 1.518-.286 1.958-.814l2.002 2.442c-.902.88-2.442 1.408-4.048 1.408-3.454 0-6.138-2.2-6.138-5.83 0-3.564 2.706-5.83 6.116-5.83 1.562 0 3.212.594 4.07 1.474zm10.58 0l-2.09 2.42c-.396-.528-1.188-.88-1.914-.88-1.518 0-2.53 1.298-2.53 2.816 0 1.518.99 2.794 2.574 2.794.726 0 1.518-.286 1.958-.814l2.002 2.442c-.902.88-2.442 1.408-4.048 1.408-3.454 0-6.138-2.2-6.138-5.83 0-3.564 2.706-5.83 6.116-5.83 1.562 0 3.212.594 4.07 1.474zm3.849 3.102h4.642c0-1.144-.726-2.09-2.156-2.09-1.386 0-2.398.968-2.486 2.09zm7.964 1.386c0 .286 0 .594-.022.858h-7.942c.11 1.21 1.32 2.068 2.618 2.068 1.144 0 1.936-.484 2.42-1.144l2.508 1.584c-1.034 1.496-2.75 2.332-4.972 2.332-3.3 0-6.028-2.09-6.028-5.786 0-3.586 2.596-5.874 5.918-5.874 3.234 0 5.5 2.222 5.5 5.962zm10.179-4.422l-1.98 2.046c-.572-.55-1.408-.99-2.288-.99-.682 0-1.364.242-1.364.88 0 .616.594.792 2.002 1.1 1.672.374 3.498 1.21 3.498 3.344 0 2.772-2.442 3.74-4.686 3.74-1.782 0-3.63-.594-4.774-1.694l2.024-2.134c.638.704 1.628 1.232 2.684 1.232.594 0 1.298-.242 1.298-.946 0-.682-.682-.902-2.178-1.254-1.518-.352-3.19-1.122-3.19-3.19 0-2.618 2.464-3.674 4.554-3.674 1.628 0 3.322.528 4.4 1.54zm9.893 0l-1.98 2.046c-.572-.55-1.408-.99-2.288-.99-.682 0-1.364.242-1.364.88 0 .616.594.792 2.002 1.1 1.672.374 3.498 1.21 3.498 3.344 0 2.772-2.442 3.74-4.686 3.74-1.782 0-3.63-.594-4.774-1.694l2.024-2.134c.638.704 1.628 1.232 2.684 1.232.594 0 1.298-.242 1.298-.946 0-.682-.682-.902-2.178-1.254-1.518-.352-3.19-1.122-3.19-3.19 0-2.618 2.464-3.674 4.554-3.674 1.628 0 3.322.528 4.4 1.54zM232.5 2.37c0 1.122-.924 1.98-2.068 1.98-1.166 0-2.068-.902-2.068-1.98 0-1.056.902-1.98 2.068-1.98 1.144 0 2.068.88 2.068 1.98zm-.264 14.454h-3.608V5.867h3.608v10.956zm10.8-9.768l-1.98 2.046c-.572-.55-1.408-.99-2.288-.99-.682 0-1.364.242-1.364.88 0 .616.594.792 2.002 1.1 1.672.374 3.498 1.21 3.498 3.344 0 2.772-2.442 3.74-4.686 3.74-1.782 0-3.63-.594-4.774-1.694l2.024-2.134c.638.704 1.628 1.232 2.684 1.232.594 0 1.298-.242 1.298-.946 0-.682-.682-.902-2.178-1.254-1.518-.352-3.19-1.122-3.19-3.19 0-2.618 2.464-3.674 4.554-3.674 1.628 0 3.322.528 4.4 1.54zM14.126 35.301c0 3.058-1.914 5.83-5.214 5.83-1.452 0-2.882-.638-3.586-1.738h-.044v1.43H1.96V24.191h3.608v6.842h.044c.616-.726 1.738-1.474 3.344-1.474 3.19 0 5.17 2.684 5.17 5.742zm-3.476 0c0-1.408-.88-2.794-2.596-2.794-1.628 0-2.64 1.43-2.64 2.816 0 1.43 1.012 2.816 2.64 2.816 1.716 0 2.596-1.408 2.596-2.838zm15.976 5.522H23.15v-1.518h-.044c-.506.968-1.76 1.826-3.3 1.826-2.948 0-3.982-2.288-3.982-4.488v-6.776h3.63v5.94c0 1.232.308 2.332 1.628 2.332 1.254 0 1.936-1.1 1.936-2.354v-5.918h3.608v10.956zm6.253-14.454c0 1.122-.924 1.98-2.068 1.98-1.166 0-2.068-.902-2.068-1.98 0-1.056.902-1.98 2.068-1.98 1.144 0 2.068.88 2.068 1.98zm-.264 14.454h-3.608V29.867h3.608v10.956zm6.07 0h-3.652V24.191h3.652v16.632zm8.863-8.25h-2.574v4.18c0 1.012.33 1.54 1.364 1.54.352 0 .792-.066 1.056-.176l.044 2.64c-.484.176-1.32.33-2.09.33-2.926 0-3.894-1.562-3.894-3.894v-4.62h-1.76v-2.706h1.738v-2.882h3.542v2.882h2.574v2.706zm17.843 2.728c0 3.586-2.772 5.874-6.094 5.874-3.3 0-6.072-2.288-6.072-5.874s2.773-5.786 6.072-5.786c3.323 0 6.094 2.2 6.094 5.786zm-3.476 0c0-1.408-.923-2.794-2.617-2.794-1.695 0-2.575 1.386-2.575 2.794 0 1.408.903 2.838 2.596 2.838 1.694 0 2.596-1.43 2.596-2.838zm16.1 5.522h-3.63V34.84c0-1.21-.33-2.31-1.627-2.31-1.276 0-1.936 1.1-1.936 2.354v5.94h-3.63V29.867h3.498v1.518h.044c.506-.968 1.76-1.826 3.278-1.826 2.948 0 4.004 2.288 4.004 4.488v6.776z" fill="#14324F"/><path d="M94.916 30.99l-2.09 2.42c-.395-.529-1.188-.88-1.913-.88-1.519 0-2.53 1.297-2.53 2.815s.99 2.794 2.574 2.794c.726 0 1.518-.286 1.958-.814l2.001 2.442c-.901.88-2.441 1.408-4.047 1.408-3.454 0-6.138-2.2-6.138-5.83 0-3.564 2.706-5.83 6.116-5.83 1.562 0 3.212.594 4.07 1.474zm4.641 9.833h-3.652V24.191h3.652v16.632zm5.277-6.732h4.642c0-1.144-.726-2.09-2.156-2.09-1.386 0-2.398.968-2.486 2.09zm7.964 1.386c0 .286 0 .594-.022.858h-7.942c.11 1.21 1.32 2.068 2.618 2.068 1.144 0 1.936-.484 2.42-1.144l2.508 1.584c-1.034 1.496-2.75 2.332-4.972 2.332-3.3 0-6.028-2.09-6.028-5.786 0-3.586 2.596-5.874 5.918-5.874 3.234 0 5.5 2.222 5.5 5.962zm8.092.946v-.374h-.462c-1.584 0-3.366.198-3.366 1.496 0 .836.836 1.122 1.562 1.122 1.452 0 2.266-.88 2.266-2.244zm-4.796-3.102l-1.826-1.958c1.276-1.21 3.102-1.848 4.884-1.848 3.674 0 5.038 1.804 5.038 5.786v5.522h-3.3v-1.166h-.066c-.55.902-1.804 1.43-3.102 1.43-1.738 0-3.982-.858-3.982-3.432 0-3.168 3.85-3.696 7.04-3.696v-.176c0-1.078-.858-1.584-1.98-1.584-1.034 0-2.046.506-2.706 1.122zm17.565-3.674l-.154 3.168a3.52 3.52 0 00-.924-.11c-1.936 0-2.574 1.584-2.574 2.486v5.632h-3.608V29.867h3.476v1.584h.044c.55-1.1 1.628-1.892 2.97-1.892.286 0 .594.022.77.088zm17.083.22l-4.312 10.956h-3.894l-4.312-10.956h3.982l2.31 7.106h.066l2.31-7.106h3.85zm4.826-3.498c0 1.122-.924 1.98-2.068 1.98-1.166 0-2.068-.902-2.068-1.98 0-1.056.902-1.98 2.068-1.98 1.144 0 2.068.88 2.068 1.98zm-.264 14.454h-3.608V29.867h3.608v10.956zm10.8-9.768l-1.98 2.046c-.572-.55-1.408-.99-2.288-.99-.682 0-1.364.242-1.364.88 0 .616.594.792 2.002 1.1 1.672.374 3.498 1.21 3.498 3.344 0 2.772-2.442 3.74-4.686 3.74-1.782 0-3.63-.594-4.774-1.694l2.024-2.134c.638.704 1.628 1.232 2.684 1.232.594 0 1.298-.242 1.298-.946 0-.682-.682-.902-2.178-1.254-1.518-.352-3.19-1.122-3.19-3.19 0-2.618 2.464-3.674 4.554-3.674 1.628 0 3.322.528 4.4 1.54zm5.383-4.686c0 1.122-.924 1.98-2.068 1.98-1.166 0-2.068-.902-2.068-1.98 0-1.056.902-1.98 2.068-1.98 1.144 0 2.068.88 2.068 1.98zm-.264 14.454h-3.608V29.867h3.608v10.956zm13.99-5.522c0 3.586-2.772 5.874-6.094 5.874-3.3 0-6.072-2.288-6.072-5.874s2.772-5.786 6.072-5.786c3.322 0 6.094 2.2 6.094 5.786zm-3.476 0c0-1.408-.924-2.794-2.618-2.794s-2.574 1.386-2.574 2.794c0 1.408.902 2.838 2.596 2.838s2.596-1.43 2.596-2.838zm16.1 5.522h-3.63V34.84c0-1.21-.33-2.31-1.628-2.31-1.276 0-1.936 1.1-1.936 2.354v5.94h-3.63V29.867h3.498v1.518h.044c.506-.968 1.76-1.826 3.278-1.826 2.948 0 4.004 2.288 4.004 4.488v6.776z" fill="#fff"/></svg>